<svg xmlns="http://www.w3.org/2000/svg" viewBox="0 0 531 599.3" enable-background="new 0 0 531 599.3"><style type="text/css">.st0{fill:#FFFFFF;}</style><path class="st0" d="M518.3 463.8c9.7 0 15.8-10.5 11-19l-126.4-219.2-126.4-219.3c-4.9-8.4-17-8.4-21.9 0l-126.7 219.1-51.8 89.5c-4.9 8.4 1.2 19 10.9 19l97.8.1c4.5 0 8.7-2.4 11-6.3l58.6-101.3c4.9-8.4 17.1-8.4 21.9 0l62.5 108.4c4.9 8.4-1.2 19-11 19l-115-.1c-4.5 0-8.7 2.4-11 6.3l-48.9 84.7c-4.9 8.4 1.2 19 10.9 19l101.4.1h253.1zM30.3 526.2h19l30.4 71.8h-21.2l-5.2-12.7h-27.4l-5.1 12.7h-20.8l30.3-71.8zm17.3 43.7l-7.9-20.3-8 20.3h15.9zM106.6 566.7v-40h20.1v39.6c0 10.3 5.2 15.2 13.1 15.2 7.9 0 13.1-4.7 13.1-14.7v-40.1h20.1v39.5c0 23-13.1 33.1-33.4 33.1s-33-10.3-33-32.6zM210.6 526.7h27.5c25.4 0 40.2 14.7 40.2 35.2v.2c0 20.6-15 35.8-40.6 35.8h-27.1v-71.2zm27.8 53.8c11.8 0 19.6-6.5 19.6-18v-.2c0-11.4-7.8-18-19.6-18h-8v36.2h8zM313.5 526.7h19.8v71.3h-19.8v-71.3zM371.1 566.7v-40h20.1v39.6c0 10.3 5.2 15.2 13.1 15.2s13.1-4.7 13.1-14.7v-40.1h20.1v39.5c0 23-13.1 33.1-33.4 33.1s-33-10.3-33-32.6zM468.6 587.4l11-13.1c7 5.6 14.9 8.5 23.1 8.5 5.3 0 8.1-1.8 8.1-4.9v-.2c0-3-2.3-4.6-12-6.8-15.2-3.5-26.9-7.7-26.9-22.4v-.2c0-13.2 10.5-22.8 27.6-22.8 12.1 0 21.6 3.3 29.3 9.5l-9.9 13.9c-6.5-4.6-13.6-7-20-7-4.8 0-7.1 2-7.1 4.6v.2c0 3.3 2.4 4.7 12.3 6.9 16.4 3.6 26.6 8.9 26.6 22.2v.2c0 14.6-11.5 23.2-28.8 23.2-12.5 0-24.5-4-33.3-11.8z"/></svg>