<svg xmlns="http://www.w3.org/2000/svg" viewBox="0 0 985 131.8"><path style="fill:#12063d;" d="M0 63v-.2c0-15.6 11.9-28.8 28.7-28.8 9.7 0 15.7 2.7 21.4 7.6l-6.2 7.4c-4.3-3.7-8.5-6-15.6-6-10.3 0-18.1 9-18.1 19.6v.2c0 11.5 7.6 19.9 18.9 19.9 5.2 0 10-1.7 13.4-4.2v-10.4h-15.2v-8.5h24.7v23.4c-5.5 4.7-13.4 8.7-23.2 8.7-17.4 0-28.8-12.4-28.8-28.7m64.8-27.9h41.2v8.7h-31.5v14.5h28v8.7h-28v15h31.9v8.7h-41.6zm54.3 0h9l29.8 38.4v-38.4h9.7v55.6h-8.2l-30.7-39.6v39.6h-9.6zm61.1 0h41.3v8.7h-31.5v14.5h27.9v8.7h-27.9v15h31.9v8.7h-41.7zm54.3 0h24.8c7 0 12.5 2.1 16.1 5.6 2.9 3 4.6 7.2 4.6 12v.2c0 9.1-5.5 14.6-13.2 16.9l15 21.1h-11.6l-13.7-19.4h-12.2v19.4h-9.8v-55.8zm24.1 27.5c7 0 11.5-3.7 11.5-9.3v-.1c0-6-4.3-9.2-11.5-9.2h-14.2v18.7l14.2-.1zm51.7-27.9h9.1l24.5 56.1h-10.3l-5.6-13.4h-26.3l-5.7 13.4h-10l24.3-56.1zm14 33.9l-9.6-22.3-9.5 22.3h19.1zm28.1-33.5h9.7v46.7h29.3v8.9h-39zm232.4 28.2v-.2c0-15.8 11.8-28.8 28.7-28.8 10.3 0 16.5 3.6 21.8 8.7l-6.3 7.2c-4.5-4.1-9.2-6.9-15.6-6.9-10.6 0-18.4 8.7-18.4 19.6v.2c0 10.9 7.7 19.7 18.4 19.7 6.8 0 11.2-2.7 16-7.2l6.3 6.4c-5.8 6-12.2 9.9-22.6 9.9-16.2 0-28.3-12.6-28.3-28.6m79.9-28.4h9.1l24.5 56.1h-10.3l-5.6-13.4h-26.3l-5.7 13.4h-10l24.3-56.1zm13.9 33.9l-9.6-22.3-9.5 22.3h19.1zm32.6-24.4h-17.6v-9.1h45.1v9.1h-17.6v46.6h-9.9zm47.4-9.5h9.1l24.5 56.1h-10.3l-5.6-13.4h-26.3l-5.7 13.4h-10l24.3-56.1zm14 33.9l-9.6-22.3-9.5 22.3h19.1zm28.1-33.5h9.7v46.7h29.3v9h-39zm53.1 33.7l-21.1-33.7h11.6l14.5 24.6 14.7-24.6h11.2l-21.1 33.5v22.2h-9.8zm34.2 13.8l6.2-7c5.6 4.6 11.4 7.2 18.6 7.2 6.4 0 11-2.9 11-7v-.2c0-4-2.9-6.2-13.8-8.6-12.5-2.9-19.6-6.3-19.6-16.5v-.2c0-9.5 8.4-16.1 20.1-16.1 8.6 0 15.4 2.5 21.4 7l-5.6 7.4c-5.3-3.7-10.6-5.7-16-5.7-6.1 0-10.3 2.9-10.3 6.6v.2c0 4.3 3.4 6.3 14.8 8.8 12.5 2.9 18.8 7 18.8 16.2v.2c0 10.4-8.7 16.6-21 16.6-9 0-17.5-2.9-24.6-8.9m69.5-38.4h-17.7v-9.1h45.2v9.1h-17.7v46.6h-9.8zm-470.9-14.6c-19.9 0-36.1 16.2-36.1 36.1s16.2 36.1 36.1 36.1c10.7 0 20.6-4.6 27.5-12.7h-27.5c-12.9 0-23.5-10.5-23.5-23.4s10.5-23.4 23.4-23.4h27.5c-6.8-8.1-16.7-12.7-27.4-12.7m0-29.8c-36.3 0-65.9 29.6-65.9 65.9s29.6 65.9 65.9 65.9 65.9-29.6 65.9-65.9c0-2.1-.1-4.2-.3-6.3h-65.6c-3.5 0-6.3 2.8-6.3 6.3s2.8 6.3 6.3 6.3h52.9l-.2 1.3c-3.7 26-26.4 45.6-52.7 45.6-29.4 0-53.2-23.9-53.2-53.2s23.9-53.2 53.2-53.2c20.2 0 38.9 11.7 47.8 29.8h13.8c-9.7-25.5-34.2-42.5-61.6-42.5"/></svg>