<!-- Generator: Adobe Illustrator 22.1.0, SVG Export Plug-In  -->
<svg version="1.1"
	 xmlns="http://www.w3.org/2000/svg" xmlns:xlink="http://www.w3.org/1999/xlink" xmlns:a="http://ns.adobe.com/AdobeSVGViewerExtensions/3.0/"
	 x="0px" y="0px" width="18px" height="15.9px" viewBox="0 0 18 15.9" style="enable-background:new 0 0 18 15.9;"
	 xml:space="preserve">
<style type="text/css">
	.st0{fill:#F419F4;}
</style>
<defs>
</defs>
<path class="st0" d="M9,15.9c-0.7-0.7-1.4-1.4-2.1-2.1C5.1,12,3.3,10.2,1.6,8.5C0.6,7.4,0,6.2,0,4.8c0-2.2,1.5-4,3.5-4.6
	c1.8-0.5,3.4-0.1,4.7,1.2C8.5,1.6,8.7,1.9,9,2.2c0.3-0.3,0.5-0.5,0.7-0.7c1.9-1.9,4.9-2,6.8-0.1c0.4,0.4,0.8,0.9,1,1.5
	c0.8,1.8,0.5,3.5-0.7,5c-0.2,0.2-0.3,0.4-0.5,0.6c-2.4,2.4-4.8,4.8-7.2,7.2C9.1,15.7,9,15.8,9,15.9z"/>
</svg>
