<svg width="22" height="16" viewBox="0 0 22 16" fill="none" xmlns="http://www.w3.org/2000/svg">
    <path d="M3.65 6.95003C4.06534 6.95003 4.47135 6.82686 4.8167 6.59611C5.16204 6.36536 5.4312 6.03739 5.59015 5.65366C5.74909 5.26994 5.79068 4.8477 5.70965 4.44034C5.62862 4.03298 5.42861 3.65879 5.13492 3.3651C4.84123 3.07141 4.46705 2.87141 4.05969 2.79038C3.65233 2.70935 3.23009 2.75094 2.84636 2.90988C2.46264 3.06882 2.13466 3.33799 1.90391 3.68333C1.67316 4.02867 1.55 4.43469 1.55 4.85003C1.55052 5.40682 1.77194 5.94066 2.16565 6.33437C2.55936 6.72809 3.09321 6.9495 3.65 6.95003ZM11 8.00003C11.7268 8.00003 12.4374 7.78449 13.0417 7.38068C13.6461 6.97686 14.1171 6.40291 14.3953 5.73139C14.6734 5.05987 14.7462 4.32095 14.6044 3.60807C14.4626 2.89519 14.1126 2.24037 13.5986 1.72641C13.0847 1.21245 12.4298 0.862441 11.717 0.72064C11.0041 0.578839 10.2652 0.651617 9.59364 0.929769C8.92212 1.20792 8.34816 1.67895 7.94435 2.28331C7.54053 2.88766 7.325 3.59818 7.325 4.32503C7.32474 4.80771 7.41962 5.28571 7.60422 5.73169C7.78881 6.17768 8.0595 6.58291 8.4008 6.92422C8.74211 7.26553 9.14734 7.53622 9.59333 7.72081C10.0393 7.90541 10.5173 8.00029 11 8.00003ZM12.05 11.15C12.05 10.5233 12.1786 9.93039 12.3811 9.37257C11.9324 9.50414 11.4675 9.57229 11 9.57503C10.1928 9.57503 9.43812 9.37815 8.75234 9.05003H8.48C7.47756 9.05029 6.51625 9.44862 5.80742 10.1575C5.09859 10.8663 4.70026 11.8276 4.7 12.83V13.775C4.7 14.1927 4.86594 14.5934 5.16131 14.8887C5.45668 15.1841 5.85728 15.35 6.275 15.35H14.1828C12.8959 14.3922 12.05 12.8737 12.05 11.15ZM6.17984 8.61034C5.78687 8.21892 5.25465 7.99942 4.7 8.00003H2.6C2.04321 8.00055 1.50936 8.22196 1.11565 8.61568C0.721938 9.00939 0.500521 9.54323 0.5 10.1V11.15C0.5 11.4285 0.610625 11.6956 0.807538 11.8925C1.00445 12.0894 1.27152 12.2 1.55 12.2H3.71234C3.81232 11.4498 4.08787 10.7337 4.51662 10.11C4.94536 9.48623 5.5152 8.97244 6.17984 8.61034ZM17.3 6.95003C16.4693 6.95003 15.6573 7.19635 14.9666 7.65785C14.2759 8.11936 13.7376 8.77531 13.4197 9.54276C13.1018 10.3102 13.0186 11.1547 13.1807 11.9694C13.3428 12.7841 13.7428 13.5325 14.3302 14.1199C14.9175 14.7073 15.6659 15.1073 16.4806 15.2693C17.2953 15.4314 18.1398 15.3482 18.9073 15.0303C19.6747 14.7124 20.3307 14.1741 20.7922 13.4834C21.2537 12.7927 21.5 11.9807 21.5 11.15C21.5 10.0361 21.0575 8.96783 20.2698 8.18018C19.4822 7.39252 18.4139 6.95003 17.3 6.95003ZM19.4 11.675C19.4 11.7214 19.3816 11.7659 19.3488 11.7987C19.316 11.8315 19.2715 11.8499 19.2251 11.8499H17.9999V13.0751C17.9999 13.1215 17.9815 13.166 17.9487 13.1988C17.9159 13.2316 17.8714 13.25 17.825 13.25H16.775C16.7286 13.25 16.6841 13.2316 16.6513 13.1988C16.6185 13.166 16.6001 13.1215 16.6001 13.0751V11.8499H15.3749C15.3285 11.8499 15.284 11.8315 15.2512 11.7987C15.2184 11.7659 15.2 11.7214 15.2 11.675V10.625C15.2 10.5786 15.2184 10.5342 15.2512 10.5014C15.284 10.4686 15.3285 10.4501 15.3749 10.4501H16.6001V9.22492C16.6001 9.17853 16.6185 9.13405 16.6513 9.10125C16.6841 9.06845 16.7286 9.05003 16.775 9.05003H17.825C17.8714 9.05003 17.9159 9.06845 17.9487 9.10125C17.9815 9.13405 17.9999 9.17853 17.9999 9.22492V10.4501H19.2251C19.2481 10.4501 19.2708 10.4547 19.292 10.4634C19.3133 10.4722 19.3325 10.4851 19.3488 10.5014C19.365 10.5176 19.3779 10.5369 19.3867 10.5581C19.3955 10.5793 19.4 10.6021 19.4 10.625V11.675Z" fill="#6500EA"/>
</svg>
