<svg width="28" height="28" viewBox="0 0 28 28" fill="none" xmlns="http://www.w3.org/2000/svg">
    <path d="M6.99989 14C5.61544 14 4.26208 14.4106 3.11096 15.1797C1.95983 15.9489 1.06264 17.0421 0.532838 18.3212C0.00303292 19.6002 -0.135588 21.0077 0.134504 22.3655C0.404596 23.7234 1.07127 24.9706 2.05022 25.9496C3.02917 26.9285 4.27643 27.5952 5.63428 27.8653C6.99212 28.1354 8.39957 27.9968 9.67863 27.467C10.9577 26.9372 12.0509 26.04 12.8201 24.8888C13.5892 23.7377 13.9998 22.3844 13.9998 20.9999C13.9998 19.1434 13.2623 17.363 11.9496 16.0502C10.6368 14.7375 8.85637 14 6.99989 14ZM27.7261 10.9999L21.8785 1.00047C21.6982 0.695748 21.4417 0.443245 21.1342 0.267845C20.8266 0.0924438 20.4787 0.000198364 20.1247 0.000198364C19.7706 0.000198364 19.4227 0.0924438 19.1152 0.267845C18.8076 0.443245 18.5511 0.695748 18.3709 1.00047L12.5232 10.9999C11.7445 12.3332 12.719 14 14.2781 14H25.9712C27.5303 14 28.5048 12.3332 27.7261 10.9999ZM26.2496 15.75H17.4997C17.0356 15.75 16.5905 15.9344 16.2623 16.2625C15.9341 16.5907 15.7497 17.0358 15.7497 17.5V26.2498C15.7497 26.7139 15.9341 27.1591 16.2623 27.4872C16.5905 27.8154 17.0356 27.9998 17.4997 27.9998H26.2496C26.7137 27.9998 27.1588 27.8154 27.487 27.4872C27.8152 27.1591 27.9995 26.7139 27.9995 26.2498V17.5C27.9995 17.0358 27.8152 16.5907 27.487 16.2625C27.1588 15.9344 26.7137 15.75 26.2496 15.75Z" fill="#6500EA"/>
</svg>