<svg width="22" height="22" viewBox="0 0 22 22" fill="none" xmlns="http://www.w3.org/2000/svg">
    <path d="M7.06323 7.83934V7.71875C7.06323 7.75977 7.0538 7.79627 7.05134 7.83564C7.05537 7.83663 7.05935 7.83786 7.06323 7.83934ZM21.3863 11.7793C20.5274 9.84664 19.3995 5.556 18.3889 4.11963C17.6017 3.00135 16.5572 2.08875 15.3434 1.45879C14.1296 0.828837 12.7821 0.499995 11.4146 0.5L8.37573 0.5C4.02808 0.5 0.500733 4.02734 0.500733 8.375C0.500536 9.48129 0.734311 10.5751 1.18671 11.5847C1.63911 12.5942 2.29991 13.4967 3.12573 14.2329V21.5H13.6257V18.875H16.2507C16.9469 18.875 17.6146 18.5984 18.1069 18.1062C18.5992 17.6139 18.8757 16.9462 18.8757 16.25V13.625H20.1882C20.4068 13.6248 20.6219 13.57 20.8139 13.4656C21.006 13.3612 21.1689 13.2105 21.2879 13.0271C21.4069 12.8438 21.4782 12.6336 21.4954 12.4157C21.5126 12.1978 21.4751 11.979 21.3863 11.7793ZM14.282 9.03125H12.1926C12.2703 9.24144 12.3111 9.46344 12.3132 9.6875C12.3132 10.2096 12.1058 10.7104 11.7366 11.0796C11.3674 11.4488 10.8666 11.6562 10.3445 11.6562C10.1204 11.6541 9.89842 11.6133 9.68823 11.5357V13.625H7.06323V11.5357C6.85304 11.6133 6.63104 11.6541 6.40698 11.6562C5.88484 11.6562 5.38408 11.4488 5.01487 11.0796C4.64565 10.7104 4.43823 10.2096 4.43823 9.6875C4.43823 9.64648 4.44767 9.60998 4.45013 9.57061C4.01043 9.41916 3.63874 9.1166 3.40123 8.71677C3.16373 8.31694 3.07582 7.8458 3.15316 7.38723C3.2305 6.92866 3.46807 6.51241 3.82357 6.21259C4.17907 5.91278 4.62943 5.74885 5.09448 5.75C5.09448 5.22786 5.3019 4.7271 5.67112 4.35788C6.04033 3.98867 6.54109 3.78125 7.06323 3.78125C7.4023 3.7832 7.73498 3.87369 8.02833 4.04375C8.20454 3.76256 8.4493 3.53074 8.73964 3.37005C9.02998 3.20936 9.35639 3.12505 9.68823 3.12505C10.0201 3.12505 10.3465 3.20936 10.6368 3.37005C10.9272 3.53074 11.1719 3.76256 11.3481 4.04375C11.5965 3.89958 11.8737 3.81226 12.1598 3.78806C12.446 3.76386 12.7339 3.80339 13.0029 3.9038C13.272 4.00421 13.5154 4.16301 13.7157 4.36876C13.916 4.57452 14.0682 4.82212 14.1614 5.09375H14.282C14.8041 5.09375 15.3049 5.30117 15.6741 5.67038C16.0433 6.0396 16.2507 6.54036 16.2507 7.0625C16.2507 7.58464 16.0433 8.0854 15.6741 8.45462C15.3049 8.82383 14.8041 9.03125 14.282 9.03125Z" fill="#F87D70"/>
</svg>
