<svg width="22" height="18" viewBox="0 0 22 18" fill="none" xmlns="http://www.w3.org/2000/svg">
    <path d="M19.4 6.89998C20.5583 6.89998 21.5 5.95826 21.5 4.79998C21.5 3.64169 20.5583 2.69998 19.4 2.69998C18.2417 2.69998 17.3 3.64169 17.3 4.79998C17.3 5.95826 18.2417 6.89998 19.4 6.89998ZM2.6 8.47498C1.44172 8.47498 0.5 9.41669 0.5 10.575C0.5 11.7333 1.44172 12.675 2.6 12.675C3.75828 12.675 4.7 11.7333 4.7 10.575C4.7 9.41669 3.75828 8.47498 2.6 8.47498ZM17.3525 7.25435L16.7225 6.41435L15.1475 7.5956L15.7775 8.4356L17.3525 7.25435ZM19.4 13.2C18.9275 13.2 18.4944 13.364 18.1433 13.6265L14.9933 11.7365C15.118 11.369 15.2 10.9818 15.2 10.5717C15.2 8.5406 13.5561 6.89669 11.525 6.89669C11.2494 6.89669 10.9803 6.93279 10.7244 6.99185L9.38562 4.12404C9.73344 3.74998 9.95 3.25123 9.95 2.69998C9.95 1.54169 9.00828 0.599976 7.85 0.599976C6.69172 0.599976 5.75 1.54169 5.75 2.69998C5.75 3.85826 6.69172 4.79998 7.85 4.79998C7.88609 4.79998 7.91891 4.79013 7.955 4.79013L9.30031 7.67107C8.42422 8.34044 7.85 9.38716 7.85 10.575C7.85 12.6061 9.49391 14.25 11.525 14.25C12.5783 14.25 13.52 13.8004 14.1894 13.0917L17.3328 14.9784C17.3164 15.0834 17.3 15.1917 17.3 15.3C17.3 16.4583 18.2417 17.4 19.4 17.4C20.5583 17.4 21.5 16.4583 21.5 15.3C21.5 14.1417 20.5583 13.2 19.4 13.2ZM11.525 12.15C10.6555 12.15 9.95 11.4445 9.95 10.575C9.95 9.70544 10.6555 8.99998 11.525 8.99998C12.3945 8.99998 13.1 9.70544 13.1 10.575C13.1 11.4445 12.3945 12.15 11.525 12.15ZM5.4875 11.1H7.0625V10.05H5.4875V11.1Z" fill="#F87D70"/>
</svg>
