<?xml version="1.0" encoding="UTF-8"?>
<svg width="24px" height="24px" viewBox="0 0 24 24" version="1.1" xmlns="http://www.w3.org/2000/svg" xmlns:xlink="http://www.w3.org/1999/xlink">
    <!-- Generator: Sketch 56.3 (81716) - https://sketch.com -->
    <title>iconOpen</title>
    <desc>Created with Sketch.</desc>
    <g id="Page-1" stroke="none" stroke-width="1" fill="none" fill-rule="evenodd">
        <g id="Artboard" transform="translate(-250.000000, -258.000000)">
            <g id="iconOpen" transform="translate(250.000000, 258.000000)">
                <path d="M4.07027726,3.00000179 L11.279739,3.00025017 L11.279739,5.13973047 L5.14179998,5.13973047 L5.14179998,18.8584225 L18.8605129,18.8584225 L18.8605129,12.7204928 L21.0000074,12.7204928 L21.0000074,19.9297244 C21.001065,20.5205022 20.5226499,20.9989149 19.9318712,21.0000018 L4.07027726,21.0000018 C3.78666952,21.0010537 3.51373919,20.8876163 3.31359723,20.6864033 C3.11239492,20.4862534 2.9989447,20.2133591 3.0000074,19.9297244 L3.0000074,4.06705862 C3.00108347,3.4773494 3.48056714,2.99893337 4.07027726,3.00000179 Z M13.2873943,3.00000179 L19.9393281,3.00024667 C20.5249223,3.00130785 20.9989355,3.47535527 20.9999982,4.0599285 L20.9999982,10.7135168 L18.8754475,10.7135168 L18.8754475,6.62770802 L9.00526261,16.497483 L8.25280283,17.2499945 L6.75000549,15.7470939 L7.50246527,14.9977659 L17.3748268,5.12363735 L13.2873943,5.12363735 L13.2873943,3.00000179 Z" id="Combined-Shape" fill="#B031E7" fill-rule="evenodd"></path>
                <rect id="Rectangle" x="0" y="0" width="24" height="24"></rect>
            </g>
        </g>
    </g>
</svg>