<svg width="22" height="22" viewBox="0 0 22 22" fill="none" xmlns="http://www.w3.org/2000/svg">
    <path d="M0.5 17.1236V18.875C0.5 20.3229 4.02734 21.5 8.375 21.5C12.7227 21.5 16.25 20.3229 16.25 18.875V17.1236C14.5561 18.3172 11.4594 18.875 8.375 18.875C5.29063 18.875 2.19395 18.3172 0.5 17.1236ZM13.625 5.75C17.9727 5.75 21.5 4.57285 21.5 3.125C21.5 1.67715 17.9727 0.5 13.625 0.5C9.27734 0.5 5.75 1.67715 5.75 3.125C5.75 4.57285 9.27734 5.75 13.625 5.75ZM0.5 12.8211V14.9375C0.5 16.3854 4.02734 17.5625 8.375 17.5625C12.7227 17.5625 16.25 16.3854 16.25 14.9375V12.8211C14.5561 14.2156 11.4553 14.9375 8.375 14.9375C5.29473 14.9375 2.19395 14.2156 0.5 12.8211ZM17.5625 13.2723C19.9127 12.817 21.5 11.9721 21.5 11V9.24863C20.5484 9.92129 19.1498 10.3807 17.5625 10.6637V13.2723ZM8.375 7.0625C4.02734 7.0625 0.5 8.53086 0.5 10.3438C0.5 12.1566 4.02734 13.625 8.375 13.625C12.7227 13.625 16.25 12.1566 16.25 10.3438C16.25 8.53086 12.7227 7.0625 8.375 7.0625ZM17.3697 9.37168C19.8307 8.92871 21.5 8.05918 21.5 7.0625V5.31113C20.0439 6.34063 17.542 6.89434 14.9088 7.02559C16.1187 7.61211 17.0088 8.39961 17.3697 9.37168Z" fill="#06BCD4"/>
</svg>
