<svg fill="none" height="24" viewBox="0 0 24 24" width="24" xmlns="http://www.w3.org/2000/svg"><path clip-rule="evenodd" d="m4.5 4.5c0-1.37891 1.12109-2.5 2.5-2.5h6.25v5c0 .69141.5586 1.25 1.25 1.25h5v11.25c0 1.3789-1.1211 2.5-2.5 2.5h-10c-1.37891 0-2.5-1.1211-2.5-2.5zm15 2.5h-5v-5zm-9.375-2.5h-2.5c-.34375 0-.625.28125-.625.625s.28125.625.625.625h2.5c.3438 0 .625-.28125.625-.625s-.2812-.625-.625-.625zm0 2.5h-2.5c-.34375 0-.625.28125-.625.625s.28125.625.625.625h2.5c.3438 0 .625-.28125.625-.625s-.2812-.625-.625-.625zm1.9206 4.6939c.0951.0414.1681.1648.3138.4115l3.432 5.8101v.0001c.1456.2467.2184.3701.2076.4712-.0095.0882-.057.1683-.1306.2205-.0843.0597-.2298.0596-.5208.0595h-.0012l-4.4854-.0028c-.2918-.0002-.4377-.0004-.5219-.0602-.0737-.0523-.121-.1324-.1305-.2207-.0108-.1009.0619-.2237.2071-.469l.0012-.002.4064-.6861c.0541-.0913.0812-.1369.1189-.1701.0335-.0292.0728-.0515.1156-.0649.0483-.0152.1024-.0152.2103-.0152l1.6275.0011c.1357.0001.2262-.1267.1922-.2457-.0044-.0153-.0108-.0307-.0196-.0455l-.9827-1.6638c-.0716-.1213-.2444-.129-.3289-.023-.0057.007-.011.0147-.0158.0229l-.8305 1.4022c-.0541.0913-.0812.1369-.1189.1701-.0335.0292-.0728.0515-.1157.0649-.0482.0152-.1023.0152-.2102.0152l-.81202-.0004c-.29177-.0002-.43775-.0004-.52196-.0602-.07362-.0523-.12094-.1324-.13041-.2207-.01087-.1009.06183-.2237.20699-.4689l.00122-.0021 2.26088-3.817.0002-.0003c.146-.2464.219-.3695.3142-.4108.0831-.036.1779-.036.261.0001z" fill="#6500ea" fill-rule="evenodd"/></svg>