<svg width="22" height="22" viewBox="0 0 22 22" fill="none" xmlns="http://www.w3.org/2000/svg">
    <path d="M11 17.5625C15.7127 17.5625 19.5312 13.7439 19.5312 9.03125C19.5312 4.31855 15.7127 0.5 11 0.5C6.2873 0.5 2.46875 4.31855 2.46875 9.03125C2.46875 13.7439 6.2873 17.5625 11 17.5625ZM20.1875 14.9375H18.8545C18.0506 16.0039 17.0252 16.8939 15.8604 17.5625H18.4771C18.6945 17.5625 18.8709 17.7102 18.8709 17.8906V18.5469C18.8709 18.7273 18.6945 18.875 18.4771 18.875H3.51875C3.30137 18.875 3.125 18.7273 3.125 18.5469V17.8906C3.125 17.7102 3.30137 17.5625 3.51875 17.5625H6.13555C4.9707 16.8939 3.94941 16.0039 3.14141 14.9375H1.8125C1.08652 14.9375 0.5 15.524 0.5 16.25V20.1875C0.5 20.9135 1.08652 21.5 1.8125 21.5H20.1875C20.9135 21.5 21.5 20.9135 21.5 20.1875V16.25C21.5 15.524 20.9135 14.9375 20.1875 14.9375Z" fill="#06BCD4"/>
</svg>
