<svg width="32" height="32" viewBox="0 0 32 32" fill="none" xmlns="http://www.w3.org/2000/svg">
<path d="M1.33609 14.1076C1.50567 14.1076 1.67011 14.0769 1.82428 14.0153C3.08329 16.5028 6.12547 20.8468 12.4359 22.3547V24.0933C12.4359 24.4626 12.7391 24.7703 13.1143 24.7703C13.4894 24.7703 13.7926 24.4677 13.7926 24.0933V22.6214C14.1009 22.6726 14.4195 22.7137 14.7381 22.7496V24.9037C14.7381 25.2729 15.0413 25.5806 15.4164 25.5806C15.7864 25.5806 16.0948 25.278 16.0948 24.9037V22.8573C16.4493 22.8727 16.8091 22.8829 17.1791 22.8829C17.7443 22.8829 18.2839 22.8727 18.8029 22.847V23.5497C18.8029 23.9189 19.1061 24.2267 19.4812 24.2267C19.8564 24.2267 20.1596 23.9241 20.1596 23.5497V22.7547C20.4833 22.7239 20.8019 22.6932 21.1051 22.6521V24.36C21.1051 24.7293 21.4083 25.037 21.7834 25.037C22.1534 25.037 22.4618 24.7344 22.4618 24.36V22.4419C26.7424 21.6161 28.7774 19.7082 29.2501 17.3849C29.358 17.0618 29.8154 16.2771 31.7373 16.5079C31.9737 16.5387 32.097 16.2361 31.9069 16.0873C31.2697 15.595 30.4475 15.2001 29.5842 14.8821C29.8719 14.7128 30.3036 14.5846 30.9562 14.5846C31.3108 14.5846 31.4444 14.1179 31.1361 13.9384C30.3344 13.4717 29.3426 13.1332 28.3663 12.887C28.6335 12.6921 29.0189 12.5126 29.5944 12.4049C30.0415 12.3228 30.0929 11.7125 29.6664 11.5587C28.6849 11.1997 27.5286 11.0099 26.4238 10.9124C26.6293 10.6765 26.9634 10.4355 27.5132 10.2406C27.8986 10.1021 27.8575 9.55845 27.4567 9.48152C26.172 9.23021 24.6303 9.3174 23.3456 9.48152C23.5306 9.23021 23.8133 8.96352 24.2552 8.70708C24.7177 8.43526 24.5327 7.71211 23.9931 7.70185C22.3076 7.66595 20.3805 8.10702 18.8903 8.54809C19.1575 8.30704 19.4658 8.06599 19.8255 7.82494C20.1955 7.57363 20.0208 7.02485 19.5635 7.00434C15.3702 6.83509 9.1214 11.6715 8.78223 11.9382C7.31767 12.8255 5.90964 13.4563 2.70302 12.6716C2.66704 11.9587 2.07608 11.3945 1.35151 11.3945C0.60638 11.3945 0 11.9997 0 12.7434C0 13.4871 0.585825 14.1076 1.33609 14.1076ZM9.85111 15.8053C9.255 15.8053 8.76682 15.3232 8.76682 14.7231C8.76682 14.1282 9.24986 13.6409 9.85111 13.6409C10.4523 13.6409 10.9354 14.123 10.9354 14.7231C10.9303 15.3232 10.4472 15.8053 9.85111 15.8053Z" fill="#6500EA"/>
</svg>
