<svg width="20" height="22" viewBox="0 0 20 22" fill="none" xmlns="http://www.w3.org/2000/svg">
    <path d="M19.1875 15.2656V1.48438C19.1875 0.938867 18.7486 0.5 18.2031 0.5H4.75C2.57617 0.5 0.8125 2.26367 0.8125 4.4375V17.5625C0.8125 19.7363 2.57617 21.5 4.75 21.5H18.2031C18.7486 21.5 19.1875 21.0611 19.1875 20.5156V19.8594C19.1875 19.5518 19.0439 19.2729 18.8225 19.0924C18.6502 18.4607 18.6502 16.6602 18.8225 16.0285C19.0439 15.8521 19.1875 15.5732 19.1875 15.2656ZM6.0625 5.99609C6.0625 5.86074 6.17324 5.75 6.30859 5.75H15.0039C15.1393 5.75 15.25 5.86074 15.25 5.99609V6.81641C15.25 6.95176 15.1393 7.0625 15.0039 7.0625H6.30859C6.17324 7.0625 6.0625 6.95176 6.0625 6.81641V5.99609ZM6.0625 8.62109C6.0625 8.48574 6.17324 8.375 6.30859 8.375H15.0039C15.1393 8.375 15.25 8.48574 15.25 8.62109V9.44141C15.25 9.57676 15.1393 9.6875 15.0039 9.6875H6.30859C6.17324 9.6875 6.0625 9.57676 6.0625 9.44141V8.62109ZM16.4559 18.875H4.75C4.02402 18.875 3.4375 18.2885 3.4375 17.5625C3.4375 16.8406 4.02813 16.25 4.75 16.25H16.4559C16.3779 16.9514 16.3779 18.1736 16.4559 18.875Z" fill="#6500EA"/>
</svg>
