<svg width="22" height="16" viewBox="0 0 22 16" fill="none" xmlns="http://www.w3.org/2000/svg">
    <path d="M6.8 8.00002C8.83109 8.00002 10.475 6.35612 10.475 4.32502C10.475 2.29393 8.83109 0.650024 6.8 0.650024C4.76891 0.650024 3.125 2.29393 3.125 4.32502C3.125 6.35612 4.76891 8.00002 6.8 8.00002ZM9.32 9.05002H9.04766C8.36516 9.37815 7.60719 9.57502 6.8 9.57502C5.99281 9.57502 5.23812 9.37815 4.55234 9.05002H4.28C2.19312 9.05002 0.5 10.7432 0.5 12.83V13.775C0.5 14.6446 1.20547 15.35 2.075 15.35H11.525C12.3945 15.35 13.1 14.6446 13.1 13.775V12.83C13.1 10.7432 11.4069 9.05002 9.32 9.05002ZM16.25 8.00002C17.9891 8.00002 19.4 6.58909 19.4 4.85002C19.4 3.11096 17.9891 1.70002 16.25 1.70002C14.5109 1.70002 13.1 3.11096 13.1 4.85002C13.1 6.58909 14.5109 8.00002 16.25 8.00002ZM17.825 9.05002H17.7003C17.2442 9.20753 16.7619 9.31252 16.25 9.31252C15.7381 9.31252 15.2558 9.20753 14.7997 9.05002H14.675C14.0056 9.05002 13.3887 9.24362 12.8473 9.55534C13.648 10.4183 14.15 11.5635 14.15 12.83V14.09C14.15 14.1622 14.1336 14.2311 14.1303 14.3H19.925C20.7945 14.3 21.5 13.5946 21.5 12.725C21.5 10.6939 19.8561 9.05002 17.825 9.05002Z" fill="#6500EA"/>
</svg>
