<svg width="24" height="24" viewBox="0 0 24 24" fill="none" xmlns="http://www.w3.org/2000/svg">
<g id="Dashboard">
<path id="ExportLayerAbove" fill-rule="evenodd" clip-rule="evenodd" d="M8.60437 18.1643C8.90925 18.8167 9.82475 18.838 10.1598 18.2003L15.4717 8.0908L17.5325 12.075C17.8097 12.6119 18.532 12.7094 18.9412 12.2668L21.7676 9.20626C22.0945 8.85299 22.0741 8.29974 21.7219 7.97106C21.3697 7.64239 20.8195 7.66287 20.4926 8.01696L18.5059 10.1677L16.2495 5.8039C15.9259 5.17851 15.0365 5.17523 14.7096 5.79898L9.43588 15.8347L6.69927 9.98821C6.46856 9.49396 5.84901 9.33168 5.40716 9.64888L2.36398 11.8349C1.97349 12.1152 1.883 12.6611 2.16181 13.0545C2.4406 13.4471 2.98435 13.5381 3.37484 13.2578L5.57031 11.6808L8.60437 18.1643Z" fill="#F87D70"/>
</g>
</svg>
