<!-- Generator: Adobe Illustrator 22.1.0, SVG Export Plug-In  -->
<svg version="1.1"
	 xmlns="http://www.w3.org/2000/svg" xmlns:xlink="http://www.w3.org/1999/xlink" xmlns:a="http://ns.adobe.com/AdobeSVGViewerExtensions/3.0/"
	 x="0px" y="0px" width="60.3px" height="60.3px" viewBox="0 0 60.3 60.3" style="enable-background:new 0 0 60.3 60.3;"
	 xml:space="preserve">
<style type="text/css">
	.st0{opacity:0.58;fill:url(#SVGID_1_);}
	.st1{fill:#5612A7;}
	.st2{fill:#F419F4;}
	.st3{opacity:0.58;fill:url(#SVGID_2_);}
</style>
<defs>
</defs>
<radialGradient id="SVGID_1_" cx="24.7616" cy="71.0696" r="30.6514" gradientTransform="matrix(0.9834 0 0 0.9834 5.7923 -39.7489)" gradientUnits="userSpaceOnUse">
	<stop  offset="0" style="stop-color:#FA366B;stop-opacity:0.7"/>
	<stop  offset="0.1265" style="stop-color:#F03273;stop-opacity:0.738"/>
	<stop  offset="0.343" style="stop-color:#D5298A;stop-opacity:0.8029"/>
	<stop  offset="0.623" style="stop-color:#A819AF;stop-opacity:0.8869"/>
	<stop  offset="0.9528" style="stop-color:#6B03E2;stop-opacity:0.9858"/>
	<stop  offset="1" style="stop-color:#6200EA"/>
</radialGradient>
<circle class="st0" cx="30.1" cy="30.1" r="30.1"/>
<g>
	<circle class="st1" cx="30.1" cy="30.1" r="18.5"/>
</g>
<path class="st2" d="M24.3,23.6c-1.3,0.2-2.3,1.4-2.3,2.7v7.2c-0.4-0.2-1-0.3-1.5-0.2c-1.5,0.3-2.8,1.7-2.8,3.2
	c0,1.5,1.2,2.6,2.8,2.3c1.5-0.3,2.8-1.7,2.8-3.2v-7.5l7.3-1.2v5.2c-0.4-0.2-1-0.3-1.5-0.2c-1.5,0.3-2.8,1.7-2.8,3.2
	c0,1.5,1.2,2.6,2.8,2.3c1.5-0.3,2.8-1.7,2.8-3.2v-7.5l7.3-1.2v5.2c-0.4-0.2-1-0.3-1.5-0.2c-1.5,0.3-2.8,1.7-2.8,3.2
	c0,1.5,1.2,2.6,2.8,2.3c1.5-0.3,2.8-1.7,2.8-3.2V20.9L24.3,23.6z"/>
</svg>
