<svg xmlns="http://www.w3.org/2000/svg" viewBox="0 0 599.8 121.8" fill="#fff"><path d="M184.8 48.9c-5.2 0-8.3-4.2-8.3-8.2s3.1-8.1 8.3-8.1c5.5 0 8.4 4.2 8.4 8.1 0 4-3.2 8.2-8.4 8.2zm380.1 50.4c-9.9 0-17.6-9.3-17.6-21.2 0-15.8 12.5-24.8 24.3-24.8 3.9 0 7.1 1.2 8.6 1.9l.3.1v-9.7c0-4.5-.5-4.8-2.9-5.4-.2-.1-.4-.1-.7-.2l-3-.9 20.5-6.7v54.8c0 4.9.6 6.1 3.6 7l1.8.5-.5 1.3-18.8 3.1v-9.2l-.4.5c-4.2 5.6-9.9 8.9-15.2 8.9zm7.4-43.4c-6.7 0-10 5.9-10 18.1 0 10.7 3.9 17.3 10.3 17.3 4.3 0 8-3.6 8-7.7v-19.3c0-6.3-5.6-8.4-8.3-8.4zm-399.6 41.9l.2-1.2 3.2-.5c1.3-.2 2.2-1.1 2.2-2.4v-26.9c0-5.1-2.3-6.3-4.3-6.9l-1.2-.3 19.5-6.3v40.3c0 1.5 1.1 2.3 2 2.4l3.3.5.2 1.2-25.1.1zm217.1 23.8l.2-1.2 3.2-.5c1.3-.2 2.2-1.1 2.2-2.4v-50.2c0-3.4-1.5-6.3-3.6-7l-2-.5 19.6-6.4v9.3l.4-.5c4.3-5.5 9.6-8.7 14.9-8.7 9.9 0 16.8 10.2 16.8 22.1 0 15.8-12.1 23.9-24 23.9-3.9 0-6.3-.8-7.8-1.5l-.3-.1v19.8c0 1.3.9 2.2 2.2 2.4l3.2.5.2 1.2h-25.2v-.2zm27.4-60.6c-4.3 0-8 3.9-8 7.9v20.1c0 4.8 4.2 7.7 7.5 7.7 4.6 0 10.4-3.7 10.4-19.2 0-10.8-3.5-16.5-9.9-16.5zm-130.1 32.7v-24.2c0-4.7-4-7.6-7.8-7.6-3.9 0-7.3 3.4-7.3 7.3v24.5c0 1.4 1.1 2.2 2 2.4l3.3.5.2 1.2h-24.3l.2-1.2 2.5-.5c1-.2 2-1 2-2.3v-48.6c0-3.5-2.7-4.8-3.5-5.2l-2.2-.9 19.8-6.4v29.7l.4-.6c.1-.1 5.6-8.3 15.5-8.3 3.2 0 6.8 1.5 9.1 3.8 2.3 2.4 3.7 6.6 3.7 11.2l.1 25.3c0 1.4 1.1 2.2 2 2.4l3.3.5.2 1.2h-24.2l.2-1.2 2.5-.5c1.2-.3 2.2-1.1 2.3-2.5" /><path d="M119.7 36.8c0-1.3-.9-2.2-2.2-2.4l-3.2-.5-.2-1.2h27.6l-.2 1.2-3.2.5c-1.3.2-2.2 1.1-2.2 2.4v56.3c0 2.7 3.5 2.3 3.5 2.3 9.9 0 16.1-3.7 22.7-18.2l1.1-2.4h3.1l-2.8 23.1h-49.5l.2-1.2 3.2-.5c1.3-.2 2.2-1.1 2.2-2.4v-.6l-.1-56.4zm209.7 62.5c-6.9 0-12.6-5.8-12.6-12.7v-25.7h-9.8l6.1-6h2.1c.4 0 .9-.2 1.2-.5.3-.3.5-.7.5-1.2v-5.3l13-4.3v11.3h12.4l-5.7 6h-6.7v24.1c0 6.2 4.4 8.4 7.4 8.4 1.6 0 2.5-.4 3.7-.9l.2-.1 1.2 1.4c-3.7 3.2-7.2 5.5-13 5.5zm134.7-27.6l26.7.4c.1-.8.1-3.5.1-4.4-.3-6.8-5-14.4-17.3-14.4-13.9 0-24.4 10.2-24.4 24 0 12.6 9.1 22 21.2 22 9.7 0 16.5-4.3 20.3-13.1l-1-.9c-2.7 4-6.6 6.1-11.4 6.1-8.7 0-14.3-7-14.4-17.9 0-.9.2-1.8.2-1.8zm-.1-3.3c.7-8.4 3.6-12.3 8.2-12.3 1.3 0 2.5.5 3.4 1.4 1.9 1.9 2.8 5 2.7 10.8v.2l-14.3.1v-.2zm48.6 3.3l26.7.4c.1-.8.1-3.5.1-4.4-.3-6.8-5-14.4-17.3-14.4-13.9 0-24.4 10.2-24.4 24 0 12.6 9.1 22 21.2 22 9.7 0 16.5-4.3 20.3-13.1l-1-.9c-2.7 4-6.6 6.1-11.4 6.1-8.7 0-14.3-7-14.4-17.9l.2-1.8zm0-3.3c.7-8.4 3.6-12.3 8.2-12.3 1.3 0 2.5.5 3.4 1.4 1.9 1.9 2.8 5 2.7 10.8v.2l-14.3.1v-.2zm-142.1 1.9c-5.9-2.3-10.4-4-10.4-8.4 0-4 2.8-6.3 6.8-6.3 2.4 0 4 .7 5.6 1.6l7.5 10.9 2.6-.1-.5-14.7-4.8 1.6c-2.7-.9-6.7-1.6-10.2-1.6-10.6 0-17.7 5.6-17.7 14.4 0 8.1 6.1 11.1 13.6 14 5.5 2.2 10.6 3.7 10.6 9.3 0 3.2-3 6.3-7.9 6.3-5.1 0-7.8-2.6-11.1-7.5l-2.7-5.7-2.6.6-.9 11.6c3.8 1.6 11.1 3.1 17.1 3.1 13.2 0 19.2-7 19.2-14.7-.1-8.7-7.4-11.6-14.2-14.4zm-136.6 19.2h-15.7c-1.3 0-3.5-1.3-3.5-3.7 0-3.1 2.7-3.9 3.7-3.9h.6c1.7.3 2.5.4 4.5.4 11.9 0 19.9-6.2 19.9-14.9 0-2.6-.4-4.5-1.9-6.1l5.5-5-1.3-3.9-9.3 3.8c-3-1.8-7.7-2.9-12.2-2.9-11.6 0-19.4 7.4-19.4 15.3 0 6.8 3.8 10.5 9.4 12.5v.1c-5.8 1.7-11.1 5.6-11.1 10.9 0 4.7 4.7 8.9 10.5 9.6-5.9 2.3-11.7 4.9-11.7 10.1 0 6.6 6.3 9.8 19 9.8 16.2 0 27.7-9 27.7-19.5.2-7.9-5.9-12.6-14.7-12.6zm-14.2-30.6c.7-1.5 2.5-2.8 4.5-2.8 3.7 0 6 3.1 6 12.1 0 8.9-1.7 12-6 12-3.6 0-5.7-3.6-5.7-12.1 0-4.2.2-7.3 1.2-9.2zm2.7 59.4c-6.2 0-9.8-3.6-9.8-8.9 0-4 4.4-7.5 8.3-7.5h8.4c7 .5 10.3 2 10.3 7-.1 5.5-9.3 9.4-17.2 9.4z"/><path class="st0" d="M65.2 65.2h-32.6v-32.6l-32.6-32.6v97.8h97.8z"/></svg>