<?xml version="1.0" encoding="utf-8"?>
<!-- Generator: Adobe Illustrator 25.0.1, SVG Export Plug-In . SVG Version: 6.00 Build 0)  -->
<svg version="1.1" id="Layer_1" xmlns="http://www.w3.org/2000/svg" xmlns:xlink="http://www.w3.org/1999/xlink" x="0px" y="0px"
	 viewBox="0 0 208 62" style="enable-background:new 0 0 208 62;" xml:space="preserve">
<style type="text/css">
	.st0{fill-rule:evenodd;clip-rule:evenodd;fill:#12063D;}
</style>
<path class="st0" d="M48.3,54.9l2.8,2.8c-2.5,2.6-5.3,4.3-9.9,4.3c-7.1,0-12.4-5.5-12.4-12.6c0-7,5.2-12.7,12.6-12.7
	c4.5,0,7.2,1.6,9.6,3.8l-2.8,3.2c-2-1.8-4-3-6.8-3c-4.7,0-8.1,3.8-8.1,8.6s3.4,8.7,8.1,8.7C44.3,58.1,46.2,56.8,48.3,54.9z
	 M70.2,52.3l6.6,9.2h-5.1l-6-8.5h-2v-3.8h2.9c3.1,0,5-1.6,5-4.1c0-2.7-1.9-4.1-5.1-4.1h-6.2v8.2h0v3.8h0v8.5h-4.3V37.2h10.9
	c5.6,0,9.1,3,9.1,7.7C76,49,73.6,51.4,70.2,52.3z M93.3,51.9l9.7-14.7h-4.9L91.2,48l-6.8-10.8h-5.1L89,52v9.6h4.3V51.9z M116.9,37.2
	c5.7,0,9.3,3.2,9.3,8.2c0,5.5-4.4,8.4-9.8,8.4h-1.5v-3.9h1.6c3.2,0,5.3-1.8,5.3-4.4c0-2.9-2.1-4.4-5.3-4.4h-5v8.8h0v3.9h0v7.8h-4.3
	V37.2H116.9z M149.1,41.1h-19.5v0h-0.3v-4h19.8V41.1z M141.4,44.5h-4.3v17.1h4.3V44.5z M165.9,36.8c7.5,0,12.7,5.7,12.7,12.6
	S173.4,62,165.9,62s-12.7-5.7-12.7-12.6S158.4,36.8,165.9,36.8z M165.9,58.1c4.8,0,8.2-3.9,8.2-8.6c0-4.8-3.5-8.7-8.3-8.7
	c-4.8,0-8.2,3.9-8.2,8.6S161.1,58.1,165.9,58.1z"/>
<path class="st0" d="M5.3,6.7c0-1.6,1.5-2.9,4-2.9c2.2,0,4.4,0.9,6.6,2.5l2.3-3.2C15.7,1.1,12.9,0,9.3,0C4.5,0,1,2.9,1,7.1
	c0,4.5,2.9,6.1,8.1,7.3c4.5,1,5.5,2,5.5,3.8c0,1.9-1.7,3.1-4.3,3.1c-3,0-5.4-1.2-7.7-3.2L0,21.2c2.9,2.6,6.5,3.9,10.2,3.9
	c5.1,0,8.7-2.7,8.7-7.3c0-4.1-2.7-5.9-7.8-7.2C6.4,9.5,5.3,8.6,5.3,6.7z M34.8,4.3h7.7v-4H22.7v4h7.7v20.4h4.3V4.3z M56.2,0.2h4
	L71,24.8h-4.5l-2.5-5.9H52.4l-2.5,5.9h-4.4L56.2,0.2z M54,15.1h8.4l-4.2-9.8L54,15.1z M92.7,17.2L79.6,0.3h-4v24.4h4.2V7.4
	l13.5,17.4h3.6V0.3h-4.2V17.2z M112.8,0.3c7.7,0,13,5.3,13,12.2s-5.3,12.2-13,12.2h-9.1V0.3H112.8z M112.8,20.8
	c5.1,0,8.5-3.5,8.5-8.3c0-4.8-3.3-8.3-8.5-8.3H108v16.6H112.8z M144.1,0.2h-4l-10.7,24.6h4.4l2.5-5.9h11.5l2.5,5.9h4.5L144.1,0.2z
	 M146.3,15.1h-8.4l4.2-9.8L146.3,15.1z M173.7,15.5l6.6,9.2h-5.1l-6-8.5h-5.4v8.5h-4.3V0.3h10.9c5.6,0,9.1,3,9.1,7.7
	C179.5,12.1,177.1,14.6,173.7,15.5z M170.2,12.4c3.1,0,5-1.6,5-4.1c0-2.7-1.9-4.1-5.1-4.1h-6.2v8.2H170.2z M207.4,12.5
	c0-6.9-5.3-12.2-13-12.2h-9.1v24.4h9.1C202.1,24.8,207.4,19.4,207.4,12.5z M202.9,12.6c0,4.8-3.3,8.3-8.5,8.3h-4.8V4.3h4.8
	C199.5,4.3,202.9,7.8,202.9,12.6z"/>
</svg>
