<svg width="194" height="30" viewBox="0 0 194 30" fill="none" xmlns="http://www.w3.org/2000/svg">
<path fill-rule="evenodd" clip-rule="evenodd" d="M111.052 0C111.331 0 111.558 0.226734 111.558 0.506425V28.7215C111.558 29.0012 111.331 29.228 111.052 29.228C110.772 29.228 110.545 29.0012 110.545 28.7215V0.506425C110.545 0.226734 110.772 0 111.052 0ZM11.3182 21.3101C10.7511 20.6725 10.2762 19.9452 9.90814 19.1399C9.22924 19.4062 8.51358 19.5465 7.73846 19.5465C5.03285 19.5465 3.1449 17.7848 3.1449 15.0168C3.1449 12.0915 5.09536 10.4872 7.612 10.4872C8.35153 10.4872 9.06949 10.6145 9.76735 10.8938C10.1054 10.0667 10.5501 9.31545 11.0894 8.65333C9.93288 8.0352 8.78517 7.7192 7.32971 7.7192C3.23967 7.7192 0 10.518 0 15.0168C0 19.4839 3.08225 22.2827 7.32971 22.2827C8.75783 22.2827 10.068 21.9827 11.3182 21.3101ZM25.6533 15.0168C25.6533 10.6763 22.6333 7.71934 18.4501 7.71934V7.7192C14.2987 7.7192 11.279 10.6763 11.279 15.0168C11.279 19.3266 14.2985 22.2827 18.4501 22.2827C22.6333 22.2827 25.6533 19.3266 25.6533 15.0168ZM14.4239 15.0168C14.4239 12.1863 16.1227 10.3928 18.4501 10.3928C20.8414 10.3928 22.5083 12.1863 22.5083 15.0168C22.5083 17.8169 20.8413 19.609 18.4501 19.609C16.1225 19.609 14.4239 17.8169 14.4239 15.0168ZM27.6355 8.03347V21.9683H30.7485V8.03347H27.6355ZM29.1762 1.83699C28.1387 1.83699 27.2257 2.6862 27.2257 3.75548V3.75562C27.2257 4.85674 28.1387 5.73792 29.1762 5.73792C30.2146 5.73792 31.1266 4.85674 31.1266 3.75562C31.1266 2.68634 30.2146 1.83699 29.1762 1.83699ZM39.8506 7.7192C37.8069 7.7192 35.4158 8.15993 33.4653 8.91479V21.9684H36.5795V10.9587C37.3983 10.7071 38.4981 10.5497 39.5993 10.5497C41.3298 10.5497 42.5882 11.274 42.5882 13.2873V21.9683H45.6704V13.0037C45.6704 9.07193 43.4057 7.7192 39.8506 7.7192ZM51.3913 0.578745H48.2781V21.3707C49.6936 21.8738 51.4551 22.2825 53.4682 22.2825C58.6262 22.2825 61.6141 19.2628 61.6141 14.7653C61.6141 10.2982 58.5944 7.71934 54.568 7.71934C53.3418 7.71934 52.0517 8.06545 51.3913 8.41155V0.578745ZM53.5614 19.609C52.776 19.609 51.989 19.5146 51.3913 19.3266V11.1795C52.0209 10.8334 52.9648 10.5181 54.1912 10.5181C56.5506 10.5181 58.4692 12.1223 58.4692 14.8278C58.4692 18.0367 56.424 19.609 53.5614 19.609ZM67.9358 10.4248C69.4765 10.4248 70.6094 11.1159 70.6094 12.6259V13.7905H69.0676C65.0413 13.7905 62.6195 15.1741 62.6195 18.0047C62.6195 21.1507 65.2623 22.2517 68.8797 22.2517C70.4523 22.2517 72.3391 22.0309 73.6598 21.6848V12.4684C73.6598 8.97744 71.4894 7.7192 68.4391 7.7192C66.7083 7.7192 65.1358 8.15993 63.9095 8.85084V11.5566C65.0732 10.8961 66.3314 10.4248 67.9358 10.4248ZM69.2884 15.8663H70.6093V19.766C70.0435 19.8608 69.3831 19.9233 68.9106 19.9233C67.0236 19.9233 65.7019 19.3573 65.7019 17.9102C65.7019 16.4947 67.1171 15.8663 69.2884 15.8663ZM80.1706 19.7663C78.7553 19.7663 77.2148 19.1685 75.9247 18.1937V21.1507C76.963 21.843 78.5982 22.2825 80.2344 22.2825C83.2541 22.2825 85.4872 20.9616 85.4872 18.0367C85.4872 15.5202 84.1036 14.3244 80.9257 13.6322C79.3214 13.1926 78.7246 12.7201 78.7246 11.8082C78.7246 10.8961 79.4477 10.2357 80.8004 10.2357C82.2783 10.2357 83.4741 10.7708 84.7002 11.6509V8.78848C83.5366 8.06544 82.2783 7.71948 80.7058 7.71948C77.8752 7.71948 75.7356 9.10275 75.7356 11.9344C75.7356 14.3565 76.963 15.5202 79.8564 16.1805C81.6498 16.652 82.4674 17.0607 82.4674 18.1937C82.4674 19.2946 81.5553 19.7663 80.1706 19.7663ZM89.7491 15.7718V15.7093V15.7091H99.4369V14.1356C99.4369 10.3302 97.5182 7.71934 93.461 7.71934C89.6226 7.71934 86.7295 10.6763 86.7295 15.1114C86.7295 19.5146 89.6864 22.2825 94.0271 22.2825C95.8192 22.2825 97.6752 21.8738 98.9333 20.9938V18.2562C97.5499 19.1685 96.1654 19.609 94.2467 19.609C92.0766 19.609 89.9382 18.2562 89.7491 15.7718ZM93.3666 10.3302C95.3797 10.3302 96.449 11.5246 96.5116 13.696H89.8436C90.2525 11.5884 91.5732 10.3302 93.3666 10.3302ZM134.391 8.06976L129.024 21.9933H127.289L121.921 8.06976H123.492L128.18 20.54L132.868 8.06976H134.391ZM138.63 11.5389C141.209 11.5389 142.92 13.086 142.92 15.9926V16.9536H135.185V17.0005C135.185 19.5086 136.989 20.9853 138.982 20.9853C140.435 20.9853 141.443 20.6103 142.474 19.8368V21.2432C141.56 21.9229 140.248 22.2277 138.982 22.2277C136.028 22.2277 133.778 20.2118 133.778 16.8833C133.778 13.8126 135.888 11.5389 138.63 11.5389ZM138.56 12.7813C136.966 12.7813 135.677 13.8595 135.278 15.7816H141.513C141.42 13.6485 140.271 12.7813 138.56 12.7813ZM148.659 12.8516C147.581 12.8516 146.619 13.0391 145.893 13.2266V21.9933H144.486V12.3124C145.846 11.8202 147.393 11.5389 148.776 11.5389C151.354 11.5389 152.925 12.5468 152.925 15.1018V21.9933H151.518V15.3831C151.518 13.2969 150.042 12.8516 148.659 12.8516ZM157.937 22.2277C156.46 22.2277 155.359 21.4541 155.359 19.3445V12.9688H153.788V11.7733H155.359V9.28866H156.765V11.7733H159.648V12.9688H156.765V19.2039C156.765 20.5165 157.281 21.0322 158.242 21.0322C158.898 21.0322 159.437 20.8213 160.141 20.4697V21.712C159.531 22.0167 158.828 22.2277 157.937 22.2277ZM165.786 21.0088C166.489 21.0088 167.286 20.9619 168.036 20.8681V11.7733H169.442V21.8761C168.2 22.1105 166.934 22.2277 165.88 22.2277C162.926 22.2277 161.238 21.2197 161.238 18.6648V11.7733H162.645V18.5944C162.645 20.5165 164.168 21.0088 165.786 21.0088ZM175.533 12.9453C174.525 12.9453 173.775 13.1563 173.236 13.461V21.9933H171.829V12.7109C172.908 12.0312 174.22 11.6092 175.627 11.6092C176.189 11.6092 176.752 11.6796 177.338 11.8202V13.2032C176.728 12.9922 176.002 12.9453 175.533 12.9453ZM182.163 11.5389C184.741 11.5389 186.452 13.086 186.452 15.9926V16.9536H178.717V17.0005C178.717 19.5086 180.522 20.9853 182.514 20.9853C183.968 20.9853 184.976 20.6103 186.007 19.8368V21.2432C185.093 21.9229 183.78 22.2277 182.514 22.2277C179.561 22.2277 177.311 20.2118 177.311 16.8833C177.311 13.8126 179.42 11.5389 182.163 11.5389ZM182.092 12.7813C180.498 12.7813 179.209 13.8595 178.811 15.7816H185.046C184.952 13.6485 183.804 12.7813 182.092 12.7813ZM190.41 22.2277C189.261 22.2277 188.16 21.8995 187.527 21.4073V19.8133C188.394 20.5869 189.285 21.0322 190.41 21.0322C191.699 21.0322 192.52 20.54 192.52 19.3914C192.52 18.1725 191.629 17.8443 190.011 17.3052C188.207 16.6958 187.433 15.9457 187.433 14.3049C187.433 12.5 188.793 11.5389 190.644 11.5389C191.652 11.5389 192.637 11.7499 193.434 12.3124V13.8361C192.637 13.1797 191.816 12.7344 190.644 12.7344C189.519 12.7344 188.793 13.3438 188.793 14.3049C188.793 15.2425 189.355 15.7347 190.926 16.227C192.707 16.7661 193.903 17.4459 193.903 19.2976C193.903 21.3135 192.332 22.2277 190.41 22.2277Z" fill="#12063D"/>
</svg>
