<svg width="205" height="28" viewBox="0 0 205 28" fill="none" xmlns="http://www.w3.org/2000/svg">
<path d="M17.8511 4.30792L19.1745 17.4288C19.2308 17.8793 19.2589 18.2735 19.2589 18.6113C19.2589 19.9347 18.8647 20.4133 16.8656 20.4696V20.892C17.9356 20.8638 19.5123 20.8357 21.1454 20.8357C22.7785 20.8357 24.4678 20.8638 25.7067 20.892V20.4696C23.4824 20.3852 23.3416 19.625 23.0882 17.4288L21.8493 5.82836C21.8211 5.5468 21.793 5.18076 21.793 4.8992C21.793 3.29429 22.2153 2.50591 24.496 2.4496V2.02726C23.0037 2.05541 21.8493 2.05541 20.8638 2.05541C19.5405 2.05541 18.4705 2.02726 17.7103 1.9991L13.2053 14.8665L8.55952 1.9991C7.63036 2.02726 6.4478 2.05541 5.20892 2.05541C3.97004 2.05541 2.67485 2.05541 1.57675 2.02726V2.4496C3.74479 2.47776 4.2516 3.18167 4.2516 4.84289C4.2516 5.15261 4.22345 5.49048 4.19529 5.82836L2.75932 17.5414C2.47776 19.6813 1.9991 20.4415 0 20.4978V20.892C1.04178 20.8638 2.05541 20.8357 3.18166 20.8357C4.33607 20.8357 5.57495 20.8638 7.03908 20.892V20.4696C4.42054 20.3852 3.77295 20.0755 3.77295 18.3861C3.77295 18.0764 3.8011 17.654 3.85742 17.2598L5.23708 4.22345L11.6004 21.0609H11.8257L17.8511 4.30792Z" fill="#12063D"/>
<path d="M39.5876 19.9347V19.6531L39.1652 19.625C38.5458 19.5405 38.4613 19.2589 38.4613 18.4142V13.2616C38.4613 10.3052 38.5176 8.8974 38.5739 7.94008L38.4613 7.91193C37.1098 8.27796 35.2515 8.61583 33.6184 8.75662V9.06634L34.0971 9.17896C34.9418 9.37606 34.9981 9.82656 34.9981 10.3052V19.0337C34.4913 19.2308 33.9563 19.3152 33.5903 19.3152C31.7319 19.3152 31.2251 18.189 31.2251 15.852V13.2898C31.2251 10.3052 31.2814 8.8974 31.3378 7.94008L31.2251 7.91193C29.8736 8.27796 28.0998 8.61583 26.4667 8.75662V9.06634L26.8609 9.1508C27.7056 9.37606 27.7619 9.82656 27.7619 10.3052V17.6822C27.7619 19.5686 28.8037 21.1736 30.7746 21.1736C32.098 21.1736 33.8437 20.2444 34.9981 19.3434C34.9699 19.9628 34.9418 20.6386 34.8855 21.1454L34.9981 21.2017C36.1525 20.7512 38.0953 20.2444 39.5876 19.9347Z" fill="#12063D"/>
<path d="M46.8022 20.4978L46.408 20.4415C45.7041 20.357 45.7041 20.1881 45.7041 17.9919V5.51864C45.7041 2.36513 45.7885 0.647595 45.8449 0.0563135L45.7041 0C44.437 0.506814 42.438 1.12625 41.0301 1.46413V1.60491L41.9311 2.61854C42.269 2.98457 42.269 3.3506 42.269 3.71663V17.9919C42.269 20.1881 42.269 20.357 41.4525 20.4696L41.1709 20.4978V20.892C41.7904 20.8638 42.8885 20.8357 43.9865 20.8357C45.0846 20.8357 46.1827 20.8638 46.8022 20.892V20.4978Z" fill="#12063D"/>
<path d="M52.8147 21.1736C54.8138 21.1736 56.475 19.8221 57.376 18.2453L57.2915 18.1327C56.5031 18.6395 55.7711 18.8084 54.9264 18.8084C53.7157 18.8084 52.7302 18.4987 52.7302 17.4569V9.65762L56.3905 9.74209C56.6721 9.46052 57.1789 8.53137 57.1789 8.10902L52.7302 8.22165C52.7583 7.46143 52.871 6.02545 52.9273 5.5468L52.7583 5.46233C51.435 6.78567 49.5204 8.22165 48.0844 9.1508V9.26343L49.3233 10.4742C49.2951 11.8538 49.2951 15.2044 49.2951 18.3298C49.2951 20.0473 50.7592 21.1736 52.8147 21.1736Z" fill="#12063D"/>
<path d="M63.3728 3.57585C63.3728 2.39329 62.4718 1.57675 61.4019 1.57675C60.3601 1.57675 59.431 2.39329 59.431 3.57585C59.431 4.73026 60.3601 5.57495 61.4019 5.57495C62.4718 5.57495 63.3728 4.73026 63.3728 3.57585ZM64.1612 20.4978L63.7952 20.4415C63.0631 20.357 63.0631 20.1881 63.0631 17.9919V11.1499C63.0631 9.65762 63.1194 8.36243 63.1757 7.77114L63.035 7.71483C61.8524 8.33427 59.9659 9.06634 58.6144 9.48868V9.62946L59.2902 10.6431C59.5999 11.0373 59.628 11.3752 59.628 11.7412V17.9919C59.628 20.1881 59.628 20.357 58.8115 20.4696L58.5299 20.4978V20.892C59.1494 20.8638 60.2756 20.8357 61.3456 20.8357C62.4437 20.8357 63.5418 20.8638 64.1612 20.892V20.4978Z" fill="#12063D"/>
<path d="M65.776 14.9792C65.776 18.724 68.4509 21.1736 71.8296 21.1736C74.054 21.1736 76.222 19.6531 77.0385 17.4851L76.8978 17.4006C76.0531 18.4142 75.0395 18.8366 73.885 18.8366C71.0694 18.8366 69.1829 16.753 69.1829 13.1772C69.1829 10.5586 70.5626 8.61583 72.3646 8.61583C74.0258 8.61583 73.4345 11.4315 75.321 11.4315C76.0249 11.4315 76.7007 10.8683 76.7007 10.1081C76.7007 8.58768 74.7297 7.77114 72.8996 7.77114C69.2392 7.77114 65.776 10.7557 65.776 14.9792Z" fill="#12063D"/>
<path d="M85.1473 7.77114C81.656 7.77114 78.2209 10.5586 78.2209 14.5568C78.2209 18.4987 81.656 21.1736 85.1473 21.1736C88.6669 21.1736 92.0738 18.4142 92.0738 14.416C92.0738 10.4742 88.6669 7.77114 85.1473 7.77114ZM85.1473 20.5541C83.2327 20.5541 82.1065 17.7948 82.1065 14.3034C82.1065 10.7276 83.2327 8.41874 85.1473 8.41874C87.0901 8.41874 88.2164 11.1499 88.2164 14.6694C88.2164 18.2453 87.0901 20.5541 85.1473 20.5541Z" fill="#12063D"/>
<path d="M98.6452 3.57585C98.6452 2.39329 97.7442 1.57675 96.6743 1.57675C95.6325 1.57675 94.7033 2.39329 94.7033 3.57585C94.7033 4.73026 95.6325 5.57495 96.6743 5.57495C97.7442 5.57495 98.6452 4.73026 98.6452 3.57585ZM99.4336 20.4978L99.0676 20.4415C98.3355 20.357 98.3355 20.1881 98.3355 17.9919V11.1499C98.3355 9.65762 98.3918 8.36243 98.4481 7.77114L98.3073 7.71483C97.1248 8.33427 95.2383 9.06634 93.8868 9.48868V9.62946L94.5626 10.6431C94.8723 11.0373 94.9004 11.3752 94.9004 11.7412V17.9919C94.9004 20.1881 94.9004 20.357 94.0839 20.4696L93.8023 20.4978V20.892C94.4218 20.8638 95.548 20.8357 96.618 20.8357C97.7161 20.8357 98.8142 20.8638 99.4336 20.892V20.4978Z" fill="#12063D"/>
<path d="M114.197 20.4978L113.831 20.4415C113.127 20.357 113.127 20.1881 113.127 17.9919V11.2625C113.127 9.3479 111.917 7.77114 110.058 7.77114C108.651 7.77114 106.849 8.92556 105.666 9.85471C105.694 9.23527 105.722 8.27796 105.779 7.77114L105.638 7.71483C104.455 8.33427 102.569 9.06634 101.217 9.48868V9.62946L101.893 10.6431C102.203 11.0373 102.231 11.3752 102.231 11.7412V17.9919C102.231 20.1881 102.231 20.357 101.414 20.4696L101.133 20.4978V20.892C101.752 20.8638 102.879 20.8357 103.949 20.8357C105.047 20.8357 106.145 20.8638 106.764 20.892V20.4978L106.398 20.4415C105.666 20.357 105.666 20.1881 105.666 17.9919V10.1926C106.257 9.93918 106.849 9.85471 107.243 9.85471C109.045 9.85471 109.664 11.4596 109.664 13.7966V17.9919C109.664 20.1881 109.664 20.357 108.876 20.4696L108.594 20.4978V20.892C109.214 20.8638 110.312 20.8357 111.41 20.8357C112.508 20.8357 113.578 20.8638 114.197 20.892V20.4978Z" fill="#12063D"/>
<path d="M133.442 19.09C129.443 19.09 126.234 15.6549 126.234 10.5586C126.234 5.63126 129.077 2.6467 132.597 2.6467C134.371 2.6467 135.694 3.37876 136.68 4.50501C137.496 5.40601 138.144 6.64489 138.622 7.9964L138.876 7.82746L138.2 3.15351C136.398 2.25251 134.793 1.74569 132.512 1.74569C127.05 1.74569 122.01 5.68758 122.01 11.7975C122.01 17.654 126.656 21.1736 131.78 21.1736C134.343 21.1736 136.849 20.357 138.622 18.5269L139.636 15.5423L139.411 15.4015C138.059 18.0482 136.032 19.09 133.442 19.09Z" fill="#12063D"/>
<path d="M141.215 18.1327C141.215 19.9347 142.482 21.0609 144.115 21.0609C145.579 21.0609 146.565 19.9065 147.241 19.1463C147.663 20.3289 148.62 21.0891 150.084 21.0891C151.464 21.0891 152.59 19.9347 152.759 18.6958L152.675 18.6395C152.45 18.8366 152.14 18.9774 151.717 18.9774C150.957 18.9774 150.591 18.5269 150.591 17.6259C150.591 15.9083 150.732 12.5859 150.732 10.4742C150.732 8.47505 148.451 7.77114 146.959 7.77114C144.256 7.77114 141.384 10.8402 141.384 12.5859C141.384 12.783 141.469 12.8393 141.581 12.8393C141.975 12.8393 143.411 12.5577 143.806 12.3888C143.665 11.9101 143.58 11.2625 143.58 10.6712C143.58 9.93918 144.003 9.57315 144.847 9.57315C146.565 9.57315 147.297 10.6431 147.297 11.4878V14.0782L144.031 15.486C142.285 16.218 141.215 16.7249 141.215 18.1327ZM147.269 14.5287L147.241 18.8647C146.931 19.0055 146.649 19.09 146.255 19.09C145.27 19.09 144.622 18.4424 144.622 17.2317C144.622 16.3588 145.101 15.8802 145.748 15.486L147.269 14.5287Z" fill="#12063D"/>
<path d="M160.387 27.3961L159.092 27.3398C158.276 27.2835 158.248 27.1145 158.248 24.9183V20.6949C159.064 21.0328 159.852 21.1736 160.753 21.1736C164.245 21.1736 167.736 18.3579 167.736 13.7121C167.736 10.1363 165.568 7.77114 162.612 7.77114C160.922 7.77114 159.149 9.06634 158.248 9.88287C158.248 9.3479 158.304 8.30612 158.36 7.77114L158.219 7.71483C157.037 8.33427 155.15 9.06634 153.771 9.48868V9.62946L154.475 10.6431C154.756 11.0373 154.784 11.3752 154.784 11.7412V24.9465C154.784 27.1427 154.784 27.3116 153.996 27.4243L153.714 27.4524V27.8466C154.418 27.8184 155.432 27.7903 156.699 27.7903C157.938 27.7903 159.43 27.8184 160.387 27.8466V27.3961ZM158.248 16.6685V10.1363C158.726 9.93918 159.346 9.82656 159.965 9.82656C162.33 9.82656 164.076 11.9101 164.076 15.1199C164.076 18.4424 162.724 20.4133 160.81 20.4133C159.177 20.4133 158.248 19.0337 158.248 16.6685Z" fill="#12063D"/>
<path d="M174.304 3.57585C174.304 2.39329 173.403 1.57675 172.333 1.57675C171.292 1.57675 170.362 2.39329 170.362 3.57585C170.362 4.73026 171.292 5.57495 172.333 5.57495C173.403 5.57495 174.304 4.73026 174.304 3.57585ZM175.093 20.4978L174.727 20.4415C173.995 20.357 173.995 20.1881 173.995 17.9919V11.1499C173.995 9.65762 174.051 8.36243 174.107 7.77114L173.966 7.71483C172.784 8.33427 170.897 9.06634 169.546 9.48868V9.62946L170.222 10.6431C170.531 11.0373 170.56 11.3752 170.56 11.7412V17.9919C170.56 20.1881 170.56 20.357 169.743 20.4696L169.461 20.4978V20.892C170.081 20.8638 171.207 20.8357 172.277 20.8357C173.375 20.8357 174.473 20.8638 175.093 20.892V20.4978Z" fill="#12063D"/>
<path d="M181.184 21.1736C183.183 21.1736 184.845 19.8221 185.746 18.2453L185.661 18.1327C184.873 18.6395 184.141 18.8084 183.296 18.8084C182.085 18.8084 181.1 18.4987 181.1 17.4569V9.65762L184.76 9.74209C185.042 9.46052 185.549 8.53137 185.549 8.10902L181.1 8.22165C181.128 7.46143 181.241 6.02545 181.297 5.5468L181.128 5.46233C179.805 6.78567 177.89 8.22165 176.454 9.1508V9.26343L177.693 10.4742C177.665 11.8538 177.665 15.2044 177.665 18.3298C177.665 20.0473 179.129 21.1736 181.184 21.1736Z" fill="#12063D"/>
<path d="M186.898 18.1327C186.898 19.9347 188.165 21.0609 189.798 21.0609C191.262 21.0609 192.247 19.9065 192.923 19.1463C193.345 20.3289 194.303 21.0891 195.767 21.0891C197.147 21.0891 198.273 19.9347 198.442 18.6958L198.357 18.6395C198.132 18.8366 197.822 18.9774 197.4 18.9774C196.64 18.9774 196.274 18.5269 196.274 17.6259C196.274 15.9083 196.415 12.5859 196.415 10.4742C196.415 8.47505 194.134 7.77114 192.642 7.77114C189.939 7.77114 187.067 10.8402 187.067 12.5859C187.067 12.783 187.151 12.8393 187.264 12.8393C187.658 12.8393 189.094 12.5577 189.488 12.3888C189.347 11.9101 189.263 11.2625 189.263 10.6712C189.263 9.93918 189.685 9.57315 190.53 9.57315C192.247 9.57315 192.979 10.6431 192.979 11.4878V14.0782L189.713 15.486C187.968 16.218 186.898 16.7249 186.898 18.1327ZM192.951 14.5287L192.923 18.8647C192.613 19.0055 192.332 19.09 191.938 19.09C190.952 19.09 190.305 18.4424 190.305 17.2317C190.305 16.3588 190.783 15.8802 191.431 15.486L192.951 14.5287Z" fill="#12063D"/>
<path d="M205 20.4978L204.606 20.4415C203.902 20.357 203.902 20.1881 203.902 17.9919V5.51864C203.902 2.36513 203.986 0.647595 204.043 0.0563135L203.902 0C202.635 0.506814 200.636 1.12625 199.228 1.46413V1.60491L200.129 2.61854C200.467 2.98457 200.467 3.3506 200.467 3.71663V17.9919C200.467 20.1881 200.467 20.357 199.65 20.4696L199.369 20.4978V20.892C199.988 20.8638 201.086 20.8357 202.184 20.8357C203.282 20.8357 204.381 20.8638 205 20.892V20.4978Z" fill="#12063D"/>
</svg>
