<svg xmlns="http://www.w3.org/2000/svg" width="2505.2" height="66.2" viewBox="0 0 2505.2 66.2"><style type="text/css">.st0{fill:#DDDFF7;}</style><path class="st0" d="M2468.9 55.8c7.8 1.3 17.5 2.9 36.2 2.9v-1.2c-18.6 0-28.3-1.6-36-2.9-5.4-.9-10.1-1.7-16.5-1.7-5.8 0-10.8.9-15.6 2.2-1.2-.2-2.3-.4-3.3-.5-5.4-.9-10.1-1.7-16.5-1.7-9.7 0-17 2.5-24.9 5.2-5.4 1.8-11.1 3.8-18.3 5.2-7.5-1.6-13.9-4-20.1-6.4-9.6-3.7-18.7-7.2-31.3-7.2-6.8 0-12.3 1.1-17.1 2.6-5.5-1.6-11.3-2.6-18.2-2.6-12.6 0-20.5 3.6-28.8 7.3-3.3 1.5-6.7 3-10.5 4.3-6.3-3.4-11.4-8.7-16.8-14.3-9.3-9.6-18.8-19.6-34.9-19.6-6.9 0-12.7 1.9-17.7 4.7-5-2.9-10.7-4.7-17.7-4.7-16.1 0-25.6 9.9-34.9 19.6-5.4 5.6-10.6 11-16.8 14.3-3.8-1.3-7.1-2.8-10.5-4.3-8.3-3.8-16.2-7.3-28.8-7.3-6.9 0-12.8 1.1-18.2 2.6-4.9-1.6-10.3-2.6-17.1-2.6-12.6 0-21.7 3.5-31.3 7.2-5.4 2.1-10.9 4.2-17.1 5.7-8.4-2.7-15-7.2-21.1-11.3-7.8-5.4-15.3-10.5-25-10.5-6.5 0-11.2 2.9-16.7 6.2-5.7-3.5-11.5-6.2-18.6-6.2-6.5 0-11.2 2.9-16.7 6.2-5.7 3.5-12.5 7.6-23.2 9.4-5.4-.6-9.5-1.2-13.3-1.9-5.4-.9-10.1-1.7-16.5-1.7-5.8 0-10.8.9-15.6 2.2-1.2-.2-2.3-.4-3.3-.5-5.4-.9-10.1-1.7-16.5-1.7-9.7 0-17 2.5-24.9 5.2-4.5 1.6-9.4 3.2-15.1 4.5-8.9-3.2-16.1-9-23.1-14.8-9.6-7.9-18.8-15.4-31.5-15.4-6.8 0-12.3 2.2-17.1 5.5-5.5-3.3-11.3-5.5-18.2-5.5-12.7 0-20.6 7.6-29 15.7-3.5 3.4-7.1 6.9-11.1 9.8-5.8-5.9-10.8-14.8-15.9-24-9.2-16.7-18.8-34-35-34-7 0-12.7 3.2-17.7 8.2-5-5-10.7-8.2-17.7-8.2-16.2 0-25.7 17.3-35 34-5.1 9.2-10 18.1-15.9 24-4-2.9-7.6-6.3-11.1-9.8-8.4-8.1-16.3-15.7-29-15.7-6.9 0-12.8 2.2-18.2 5.5-4.9-3.3-10.3-5.5-17.1-5.5-12.7 0-21.8 7.5-31.5 15.4-7 5.7-14.2 11.6-23.1 14.8-5.7-1.3-10.5-3-15.1-4.5-7.8-2.7-15.2-5.2-24.9-5.2-6.3 0-11 .8-16.5 1.7-1.1.2-2.2.4-3.3.5-4.8-1.3-9.8-2.2-15.6-2.2-6.3 0-11 .8-16.5 1.7-4.8.8-10.4 1.7-18.3 2.3-8-.6-13.5-1.5-18.3-2.3-5.4-.9-10.1-1.7-16.5-1.7-5.8 0-10.8.9-15.6 2.2-1.2-.2-2.3-.4-3.3-.5-5.4-.9-10.1-1.7-16.5-1.7-9.7 0-17 2.5-24.9 5.2-5.4 1.8-11.1 3.8-18.3 5.2-7.5-1.6-13.9-4-20.1-6.4-9.6-3.7-18.7-7.2-31.3-7.2-6.8 0-12.3 1.1-17.1 2.6-5.5-1.6-11.3-2.6-18.2-2.6-12.6 0-20.5 3.6-28.8 7.3-3.3 1.5-6.7 3-10.5 4.3-6.3-3.4-11.4-8.7-16.8-14.3-9.3-9.6-18.8-19.6-34.9-19.6-6.9 0-12.7 1.9-17.7 4.7-5-2.9-10.7-4.7-17.7-4.7-16.1 0-25.6 9.9-34.9 19.6-5.4 5.6-10.6 11-16.8 14.3-3.8-1.3-7.1-2.8-10.5-4.3-8.3-3.8-16.2-7.3-28.8-7.3-6.9 0-12.8 1.1-18.2 2.6-4.9-1.6-10.3-2.6-17.1-2.6-12.6 0-21.7 3.5-31.3 7.2-5.4 2.1-10.9 4.2-17.1 5.7-8.4-2.7-15-7.2-21.1-11.3-7.8-5.4-15.3-10.5-25-10.5-6.5 0-11.2 2.9-16.7 6.2-5.7-3.5-11.5-6.2-18.6-6.2-6.5 0-11.2 2.9-16.7 6.2-5.7 3.5-12.5 7.6-23.2 9.4-5.4-.6-9.5-1.2-13.3-1.9-5.4-.9-10.1-1.7-16.5-1.7-5.8 0-10.8.9-15.6 2.2-1.2-.2-2.3-.4-3.3-.5-5.4-.9-10.1-1.7-16.5-1.7-9.7 0-17 2.5-24.9 5.2-4.5 1.6-9.4 3.2-15.1 4.5-8.9-3.2-16.1-9-23.1-14.8-9.6-7.9-18.8-15.4-31.5-15.4-6.8 0-12.3 2.2-17.1 5.5-5.5-3.3-11.3-5.5-18.2-5.5-12.7 0-20.6 7.6-29 15.7-3.5 3.4-7.1 6.9-11.1 9.8-5.8-5.9-10.8-14.8-15.9-24-9.2-16.7-18.8-34-35-34-7 0-12.7 3.2-17.7 8.2-5-5-10.7-8.2-17.7-8.2-16.2 0-25.7 17.3-35 34-5.1 9.2-10 18.1-15.9 24-4-2.9-7.6-6.3-11.1-9.8-8.4-8.1-16.3-15.7-29-15.7-6.9 0-12.8 2.2-18.2 5.5-4.9-3.3-10.3-5.5-17.1-5.5-12.7 0-21.8 7.5-31.5 15.4-7 5.7-14.2 11.6-23.1 14.8-5.7-1.3-10.5-3-15.1-4.5-7.8-2.7-15.2-5.2-24.9-5.2-6.3 0-11 .8-16.5 1.7-1.1.2-2.2.4-3.3.5-4.8-1.3-9.8-2.2-15.6-2.2-6.3 0-11 .8-16.5 1.7-7.7 1.3-17.4 2.9-36 2.9v1.2c18.8 0 28.4-1.6 36.2-2.9 5.4-.9 10-1.7 16.3-1.7 4.5 0 8.6.6 12.4 1.5-6.8 1-15.7 1.9-29.5 1.9v1.2c16 0 25.4-1.2 32.6-2.3 3 .8 6 1.9 9 2.9 9.5 3.2 20.2 6.9 37.2 6.9 5.1 0 9.6-.9 13.8-2.3 6 1.3 13 2.3 21.6 2.3 16.3 0 27.1-8.9 37.6-17.4 4.1-3.4 8.2-6.7 12.4-9.3 3.9 2.7 7.4 6.1 11 9.6 8.7 8.4 17.7 17.1 32.7 17.1 5.7 0 10.5-2.5 14.8-6.6 5.6 3.9 12.2 6.6 20.6 6.6 14.1 0 22.6-15.4 31.6-31.7 5-9 10.1-18.2 16.2-24.6 6.1 6.4 11.2 15.6 16.2 24.6 9 16.3 17.5 31.7 31.6 31.7 8.4 0 14.9-2.7 20.6-6.6 4.3 4.1 9.1 6.6 14.8 6.6 15 0 24-8.7 32.7-17.1 3.6-3.5 7.1-6.9 11-9.6 4.2 2.6 8.3 5.9 12.4 9.3 10.4 8.6 21.3 17.4 37.6 17.4 8.6 0 15.6-.9 21.6-2.3 4.2 1.4 8.7 2.3 13.8 2.3 17 0 27.7-3.7 37.2-6.9 3-1 5.9-2 9-2.9 7.2 1.2 16.6 2.3 32.6 2.3 4.8 0 9-.4 12.7-1 5.8.6 13.1 1 22.7 1 18.3 0 28-5.6 35.7-10.2 1.9 1.2 3.8 2.5 5.7 3.8 9.5 6.5 20.3 13.9 37.3 13.9 7.6 0 14-.9 19.8-2.3 4.6 1.4 9.7 2.3 15.6 2.3 16.2 0 27-4.1 37.4-8.1 4.2-1.6 8.3-3.2 12.6-4.4 3.9 1.3 7.5 2.9 11.2 4.6 8.7 3.9 17.6 8 32.5 8 5.3 0 9.8-1.3 13.9-3.4 5.9 2 12.6 3.4 21.5 3.4 14 0 22.9-9.3 31.5-18.2 5-5.2 10.1-10.5 16.3-14.2 6.2 3.7 11.3 9 16.3 14.2 8.6 9 17.5 18.2 31.5 18.2 8.9 0 15.6-1.4 21.5-3.4 4.1 2.1 8.6 3.4 13.9 3.4 14.9 0 23.9-4.1 32.5-8 3.7-1.7 7.2-3.3 11.2-4.6 4.3 1.3 8.4 2.8 12.6 4.4 10.4 4 21.2 8.1 37.4 8.1 7.2 0 13.2-.7 18.5-1.7 5 1 10.5 1.7 16.9 1.7 17 0 27.7-3.7 37.2-6.9 3-1 5.9-2 9-2.9 7.2 1.2 16.6 2.3 32.6 2.3 7.1 0 12.8-.2 17.7-.6 4.9.4 10.6.6 17.7.6 16 0 25.4-1.2 32.6-2.3 3 .8 6 1.9 9 2.9 9.5 3.2 20.2 6.9 37.2 6.9 5.1 0 9.6-.9 13.8-2.3 6 1.3 13 2.3 21.6 2.3 16.3 0 27.1-8.9 37.6-17.4 4.1-3.4 8.2-6.7 12.4-9.3 3.9 2.7 7.4 6.1 11 9.6 8.7 8.4 17.7 17.1 32.7 17.1 5.7 0 10.5-2.5 14.8-6.6 5.6 3.9 12.2 6.6 20.6 6.6 14.1 0 22.6-15.4 31.6-31.7 5-9 10.1-18.2 16.2-24.6 6.1 6.4 11.2 15.6 16.2 24.6 9 16.3 17.5 31.7 31.6 31.7 8.4 0 14.9-2.7 20.6-6.6 4.3 4.1 9.1 6.6 14.8 6.6 15 0 24-8.7 32.7-17.1 3.6-3.5 7.1-6.9 11-9.6 4.2 2.6 8.3 5.9 12.4 9.3 10.4 8.6 21.2 17.4 37.6 17.4 8.6 0 15.6-.9 21.6-2.3 4.2 1.4 8.7 2.3 13.8 2.3 17 0 27.7-3.7 37.2-6.9 3-1 5.9-2 9-2.9 7.2 1.2 16.6 2.3 32.6 2.3 4.8 0 9-.4 12.7-1 5.8.6 13.1 1 22.7 1 18.3 0 28-5.6 35.7-10.2 1.9 1.2 3.8 2.5 5.7 3.8 9.5 6.5 20.3 13.9 37.3 13.9 7.6 0 14-.9 19.8-2.3 4.6 1.4 9.7 2.3 15.6 2.3 16.2 0 27-4.1 37.4-8.1 4.2-1.6 8.3-3.2 12.6-4.4 3.9 1.3 7.5 2.9 11.2 4.6 8.7 3.9 17.6 8 32.5 8 5.3 0 9.8-1.3 13.9-3.4 5.9 2 12.6 3.4 21.5 3.4 14 0 22.9-9.3 31.5-18.2 5-5.2 10.1-10.5 16.3-14.2 6.2 3.7 11.3 9 16.3 14.2 8.6 9 17.6 18.2 31.5 18.2 8.9 0 15.6-1.4 21.5-3.4 4.1 2.1 8.6 3.4 13.9 3.4 14.9 0 23.9-4.1 32.5-8 3.7-1.7 7.2-3.3 11.2-4.6 4.3 1.3 8.4 2.8 12.6 4.4 10.4 4 21.2 8.1 37.4 8.1 7.2 0 13.2-.7 18.5-1.7 5 1 10.5 1.7 16.9 1.7 17 0 27.7-3.7 37.2-6.9 3-1 5.9-2 9-2.9 7.2 1.2 16.6 2.3 32.6 2.3v-1.2c-13.8 0-22.7-.9-29.5-1.9 3.8-.9 7.9-1.5 12.4-1.5 6.3.3 11 1 16.3 1.9zm-2354.8 9.2c-16.8 0-27.4-3.6-36.8-6.9-2.2-.8-4.3-1.5-6.5-2.2l.8-.1c5.4-.9 10-1.7 16.3-1.7 9.4 0 16.7 2.5 24.5 5.1 4 1.4 8.3 2.8 13.2 4.1-3.6 1.1-7.3 1.7-11.5 1.7zm72.2-17.1c-10.3 8.4-20.9 17.1-36.8 17.1-7.6 0-13.9-.7-19.4-1.9 8.2-3.3 15-8.9 21.6-14.3 9.5-7.8 18.4-15.1 30.7-15.1 6.3 0 11.4 2 16 5-4.2 2.7-8.1 5.9-12.1 9.2zm56.9 17.1c-14.5 0-23.3-8.5-31.9-16.8-3.5-3.4-7-6.7-10.7-9.4 5.2-3 10.7-5.1 17.1-5.1 12.2 0 19.9 7.5 28.1 15.4 3.5 3.4 7.1 6.8 11.1 9.7-4 3.9-8.5 6.2-13.7 6.2zm65.9-31c-8.8 16-17.2 31-30.5 31-8 0-14.2-2.6-19.7-6.3 5.9-6 10.8-14.9 15.9-24.1 9.1-16.4 18.5-33.3 33.9-33.3 6.5 0 12 3.1 16.8 7.8-6.2 6.5-11.3 15.8-16.4 24.9zm65.1 31c-13.4 0-21.7-15.1-30.5-31-5-9.1-10.2-18.3-16.4-24.9 4.8-4.8 10.3-7.8 16.8-7.8 15.4 0 24.8 16.9 33.9 33.3 5.1 9.2 10 18.1 15.9 24.1-5.4 3.7-11.7 6.3-19.7 6.3zm67.3-16.8c-8.5 8.2-17.3 16.8-31.9 16.8-5.2 0-9.7-2.3-13.7-6.1 4-2.9 7.6-6.3 11.1-9.7 8.2-7.9 15.9-15.4 28.1-15.4 6.4 0 11.9 2 17.1 5.1-3.8 2.6-7.2 5.9-10.7 9.3zm61.8 16.8c-15.9 0-26.5-8.7-36.8-17.1-4-3.3-7.9-6.5-12.1-9.1 4.6-3 9.7-5 16-5 12.3 0 21.2 7.3 30.7 15.1 6.6 5.4 13.4 11 21.6 14.3-5.5 1-11.8 1.8-19.4 1.8zm72.2-6.9c-9.4 3.2-20 6.9-36.8 6.9-4.1 0-7.9-.6-11.4-1.6 4.9-1.2 9.1-2.7 13.2-4.1 7.7-2.6 15-5.1 24.5-5.1 6.2 0 10.9.8 16.3 1.7.2 0 .5.1.8.1-2.3.6-4.4 1.4-6.6 2.1zm41.9-.6c-13.8 0-22.7-.9-29.5-1.9 3.8-.9 7.9-1.5 12.4-1.5 6.2 0 10.9.8 16.3 1.7 2.5.4 5.3.9 8.4 1.3-2.3.3-4.8.4-7.6.4zm35.4 0c-7.5 0-13.5-.3-18.5-.7 8.6-2.1 14.5-5.7 19.6-8.7 5.3-3.2 9.9-6 16.1-6 6.5 0 12.1 2.4 17.4 5.7-7.5 4.5-17 9.7-34.6 9.7zm78.8 7.5c-16.7 0-27.3-7.3-36.6-13.7-1.7-1.2-3.5-2.4-5.2-3.5 5.1-3.1 9.6-5.7 15.6-5.7 9.4 0 16.6 5 24.3 10.3 5.7 3.9 11.8 8.1 19.4 10.8-5.2 1.1-10.9 1.8-17.5 1.8zm72.3-8.1c-10.3 4-21 8.1-36.9 8.1-4.9 0-9.2-.6-13.2-1.7 5.5-1.5 10.4-3.4 15.2-5.2 9.5-3.6 18.5-7.1 30.9-7.1 5.8 0 10.6.8 14.9 2-3.7 1.2-7.3 2.5-10.9 3.9zm56.8 8.1c-14.6 0-23.5-4-32-7.9-3.2-1.4-6.2-2.8-9.5-4 4.9-1.3 10.1-2.1 16.1-2.1 12.3 0 20.1 3.5 28.3 7.2 3 1.4 6.1 2.8 9.4 4-3.7 1.7-7.7 2.8-12.3 2.8zm66-17.9c-8.9 9.2-17.2 17.9-30.7 17.9-8.1 0-14.5-1.2-20-3 6.1-3.5 11.2-8.8 16.2-14 9.1-9.4 18.5-19.2 34-19.2 6.4 0 11.7 1.6 16.4 4.2-6 3.8-11 9-15.9 14.1zm65 17.9c-13.5 0-21.8-8.7-30.6-17.9-4.9-5.1-9.9-10.3-15.9-14.1 4.7-2.6 10.1-4.2 16.4-4.2 15.5 0 24.9 9.8 34 19.2 5 5.2 10.1 10.4 16.2 14-5.6 1.7-12 3-20.1 3zm67.4-7.9c-8.5 3.9-17.4 7.9-32 7.9-4.6 0-8.6-1-12.3-2.8 3.3-1.2 6.4-2.6 9.4-4 8.2-3.7 16-7.2 28.3-7.2 6 0 11.3.8 16.1 2.1-3.3 1.2-6.4 2.6-9.5 4zm61.7 7.9c-16 0-26.6-4.1-36.9-8.1-3.6-1.4-7.2-2.8-10.9-3.9 4.3-1.2 9.1-2 14.9-2 12.4 0 21.4 3.4 30.9 7.1 5.4 2.1 11 4.2 17.3 5.8-4.6.7-9.6 1.1-15.3 1.1zm72.1-6.9c-9.4 3.2-20 6.9-36.8 6.9-5 0-9.5-.4-13.6-1.1 5.8-1.3 10.8-3 15.4-4.6 7.7-2.6 15-5.1 24.5-5.1 6.2 0 10.9.8 16.3 1.7.2 0 .5.1.8.1-2.2.6-4.4 1.4-6.6 2.1zm42-.6c-13.8 0-22.7-.9-29.5-1.9 3.8-.9 7.9-1.5 12.4-1.5 6.2 0 10.9.8 16.3 1.7 3 .5 6.2 1 10.2 1.5-2.9.2-6 .2-9.4.2zm35.4 0c-3.4 0-6.5-.1-9.3-.1 3.9-.5 7.2-1 10.2-1.5 5.4-.9 10-1.7 16.3-1.7 4.5 0 8.6.6 12.4 1.5-6.9.9-15.8 1.8-29.6 1.8zm78.7 7.5c-16.8 0-27.4-3.6-36.8-6.9-2.2-.8-4.3-1.5-6.5-2.2l.8-.1c5.4-.9 10-1.7 16.3-1.7 9.4 0 16.7 2.5 24.5 5.1 4 1.4 8.3 2.8 13.2 4.1-3.6 1.1-7.4 1.7-11.5 1.7zm72.2-17.1c-10.3 8.4-20.9 17.1-36.8 17.1-7.6 0-13.9-.7-19.4-1.9 8.2-3.3 15-8.9 21.6-14.3 9.5-7.8 18.4-15.1 30.7-15.1 6.3 0 11.4 2 16 5-4.2 2.7-8.1 5.9-12.1 9.2zm56.9 17.1c-14.5 0-23.3-8.5-31.9-16.8-3.5-3.4-7-6.7-10.7-9.4 5.2-3 10.7-5.1 17.1-5.1 12.2 0 19.9 7.5 28.1 15.4 3.5 3.4 7.1 6.8 11.1 9.8-4 3.8-8.5 6.1-13.7 6.1zm65.9-31c-8.8 16-17.2 31-30.5 31-8 0-14.2-2.6-19.7-6.3 5.9-6 10.8-14.9 15.9-24.1 9.1-16.4 18.5-33.3 33.9-33.3 6.5 0 12 3.1 16.8 7.8-6.2 6.5-11.4 15.8-16.4 24.9zm65.1 31c-13.4 0-21.7-15.1-30.5-31-5-9.1-10.2-18.3-16.4-24.9 4.8-4.8 10.3-7.8 16.8-7.8 15.4 0 24.8 16.9 33.9 33.3 5.1 9.2 10 18.1 15.9 24.1-5.4 3.7-11.7 6.3-19.7 6.3zm67.3-16.8c-8.5 8.2-17.3 16.8-31.9 16.8-5.2 0-9.7-2.3-13.7-6.1 4-2.9 7.6-6.3 11.1-9.8 8.2-7.9 15.9-15.4 28.1-15.4 6.4 0 11.9 2 17.1 5.1-3.8 2.7-7.2 6-10.7 9.4zm61.8 16.8c-15.9 0-26.5-8.7-36.8-17.1-4-3.3-7.9-6.5-12.1-9.1 4.6-3 9.7-5 16-5 12.3 0 21.2 7.3 30.7 15.1 6.6 5.4 13.4 11 21.6 14.3-5.5 1-11.8 1.8-19.4 1.8zm72.2-6.9c-9.4 3.2-20 6.9-36.8 6.9-4.1 0-7.9-.6-11.4-1.6 4.9-1.2 9.1-2.7 13.2-4.1 7.7-2.6 15-5.1 24.5-5.1 6.2 0 10.9.8 16.3 1.7.2 0 .5.1.8.1-2.3.6-4.5 1.4-6.6 2.1zm41.9-.6c-13.8 0-22.7-.9-29.5-1.9 3.8-.9 7.9-1.5 12.4-1.5 6.2 0 10.9.8 16.3 1.7 2.5.4 5.3.9 8.4 1.3-2.3.3-4.8.4-7.6.4zm35.4 0c-7.5 0-13.5-.3-18.5-.7 8.6-2.1 14.5-5.7 19.6-8.7 5.3-3.2 9.9-6 16.1-6 6.5 0 12.1 2.4 17.4 5.7-7.5 4.5-17 9.7-34.6 9.7zm78.8 7.5c-16.7 0-27.3-7.3-36.6-13.7-1.7-1.2-3.5-2.4-5.2-3.5 5.1-3.1 9.6-5.7 15.6-5.7 9.4 0 16.6 5 24.3 10.3 5.7 3.9 11.8 8.1 19.4 10.8-5.2 1.1-10.9 1.8-17.5 1.8zm72.3-8.1c-10.3 4-21 8.1-36.9 8.1-4.9 0-9.2-.6-13.2-1.7 5.5-1.5 10.4-3.4 15.2-5.2 9.5-3.6 18.5-7.1 30.9-7.1 5.8 0 10.6.8 14.9 2-3.7 1.2-7.3 2.5-10.9 3.9zm56.7 8.1c-14.6 0-23.5-4-32-7.9-3.2-1.4-6.2-2.8-9.5-4 4.9-1.3 10.1-2.1 16.1-2.1 12.3 0 20.1 3.5 28.3 7.2 3 1.4 6.1 2.8 9.4 4-3.6 1.7-7.6 2.8-12.3 2.8zm66.1-17.9c-8.8 9.2-17.2 17.9-30.6 17.9-8.1 0-14.5-1.2-20-3 6.1-3.5 11.2-8.8 16.2-14 9.1-9.4 18.4-19.2 34-19.2 6.4 0 11.7 1.6 16.4 4.2-6.1 3.8-11.1 9-16 14.1zm65 17.9c-13.5 0-21.8-8.7-30.6-17.9-4.9-5.1-9.9-10.3-15.9-14.1 4.7-2.6 10.1-4.2 16.4-4.2 15.5 0 24.9 9.8 34 19.2 5 5.2 10.1 10.4 16.2 14-5.6 1.7-12 3-20.1 3zm67.4-7.9c-8.5 3.9-17.4 7.9-32 7.9-4.6 0-8.6-1-12.3-2.8 3.3-1.2 6.4-2.6 9.4-4 8.2-3.7 16-7.2 28.3-7.2 6 0 11.2.8 16.1 2.1-3.3 1.2-6.4 2.6-9.5 4zm61.6 7.9c-16 0-26.6-4.1-36.9-8.1-3.6-1.4-7.2-2.8-10.9-3.9 4.3-1.2 9.1-2 14.9-2 12.4 0 21.4 3.4 30.9 7.1 5.4 2.1 11 4.2 17.3 5.8-4.5.7-9.5 1.1-15.3 1.1zm72.2-6.9c-9.4 3.2-20 6.9-36.8 6.9-5 0-9.5-.4-13.6-1.1 5.8-1.3 10.8-3 15.4-4.6 7.7-2.6 15-5.1 24.5-5.1 6.2 0 10.9.8 16.3 1.7.2 0 .5.1.8.1-2.3.6-4.4 1.4-6.6 2.1z"/></svg>