<?xml version="1.0" encoding="utf-8"?>
<!-- Generator: Adobe Illustrator 22.1.0, SVG Export Plug-In . SVG Version: 6.00 Build 0)  -->
<svg version="1.1" id="Layer_1" xmlns="http://www.w3.org/2000/svg" xmlns:xlink="http://www.w3.org/1999/xlink" x="0px" y="0px"
	 viewBox="0 0 2505.2 66.2" style="enable-background:new 0 0 2505.2 66.2;" xml:space="preserve">
<style type="text/css">
	.st0{fill:#DDDFF7;}
</style>
<path class="st0" d="M35.7,55.8c-7.8,1.3-17.5,2.9-36.2,2.9v-1.2c18.6,0,28.3-1.6,36-2.9c5.4-0.9,10.1-1.7,16.5-1.7
	c5.8,0,10.8,0.9,15.6,2.2c1.2-0.2,2.3-0.4,3.3-0.5c5.4-0.9,10.1-1.7,16.5-1.7c9.7,0,17,2.5,24.9,5.2c5.4,1.8,11.1,3.8,18.3,5.2
	c7.5-1.6,13.9-4,20.1-6.4c9.6-3.7,18.7-7.2,31.3-7.2c6.8,0,12.3,1.1,17.1,2.6c5.5-1.6,11.3-2.6,18.2-2.6c12.6,0,20.5,3.6,28.8,7.3
	c3.3,1.5,6.7,3,10.5,4.3c6.3-3.4,11.4-8.7,16.8-14.3c9.3-9.6,18.8-19.6,34.9-19.6c6.9,0,12.7,1.9,17.7,4.7c5-2.9,10.7-4.7,17.7-4.7
	c16.1,0,25.6,9.9,34.9,19.6c5.4,5.6,10.6,11,16.8,14.3c3.8-1.3,7.1-2.8,10.5-4.3c8.3-3.8,16.2-7.3,28.8-7.3c6.9,0,12.8,1.1,18.2,2.6
	c4.9-1.6,10.3-2.6,17.1-2.6c12.6,0,21.7,3.5,31.3,7.2c5.4,2.1,10.9,4.2,17.1,5.7c8.4-2.7,15-7.2,21.1-11.3
	c7.8-5.4,15.3-10.5,25-10.5c6.5,0,11.2,2.9,16.7,6.2c5.7-3.5,11.5-6.2,18.6-6.2c6.5,0,11.2,2.9,16.7,6.2c5.7,3.5,12.5,7.6,23.2,9.4
	c5.4-0.6,9.5-1.2,13.3-1.9c5.4-0.9,10.1-1.7,16.5-1.7c5.8,0,10.8,0.9,15.6,2.2c1.2-0.2,2.3-0.4,3.3-0.5c5.4-0.9,10.1-1.7,16.5-1.7
	c9.7,0,17,2.5,24.9,5.2c4.5,1.6,9.4,3.2,15.1,4.5c8.9-3.2,16.1-9,23.1-14.8c9.6-7.9,18.8-15.4,31.5-15.4c6.8,0,12.3,2.2,17.1,5.5
	c5.5-3.3,11.3-5.5,18.2-5.5c12.7,0,20.6,7.6,29,15.7c3.5,3.4,7.1,6.9,11.1,9.8c5.8-5.9,10.8-14.8,15.9-24c9.2-16.7,18.8-34,35-34
	c7,0,12.7,3.2,17.7,8.2c5-5,10.7-8.2,17.7-8.2c16.2,0,25.7,17.3,35,34c5.1,9.2,10,18.1,15.9,24c4-2.9,7.6-6.3,11.1-9.8
	c8.4-8.1,16.3-15.7,29-15.7c6.9,0,12.8,2.2,18.2,5.5c4.9-3.3,10.3-5.5,17.1-5.5c12.7,0,21.8,7.5,31.5,15.4
	c7,5.7,14.2,11.6,23.1,14.8c5.7-1.3,10.5-3,15.1-4.5c7.8-2.7,15.2-5.2,24.9-5.2c6.3,0,11,0.8,16.5,1.7c1.1,0.2,2.2,0.4,3.3,0.5
	c4.8-1.3,9.8-2.2,15.6-2.2c6.3,0,11,0.8,16.5,1.7c4.8,0.8,10.4,1.7,18.3,2.3c8-0.6,13.5-1.5,18.3-2.3c5.4-0.9,10.1-1.7,16.5-1.7
	c5.8,0,10.8,0.9,15.6,2.2c1.2-0.2,2.3-0.4,3.3-0.5c5.4-0.9,10.1-1.7,16.5-1.7c9.7,0,17,2.5,24.9,5.2c5.4,1.8,11.1,3.8,18.3,5.2
	c7.5-1.6,13.9-4,20.1-6.4c9.6-3.7,18.7-7.2,31.3-7.2c6.8,0,12.3,1.1,17.1,2.6c5.5-1.6,11.3-2.6,18.2-2.6c12.6,0,20.5,3.6,28.8,7.3
	c3.3,1.5,6.7,3,10.5,4.3c6.3-3.4,11.4-8.7,16.8-14.3c9.3-9.6,18.8-19.6,34.9-19.6c6.9,0,12.7,1.9,17.7,4.7c5-2.9,10.7-4.7,17.7-4.7
	c16.1,0,25.6,9.9,34.9,19.6c5.4,5.6,10.6,11,16.8,14.3c3.8-1.3,7.1-2.8,10.5-4.3c8.3-3.8,16.2-7.3,28.8-7.3c6.9,0,12.8,1.1,18.2,2.6
	c4.9-1.6,10.3-2.6,17.1-2.6c12.6,0,21.7,3.5,31.3,7.2c5.4,2.1,10.9,4.2,17.1,5.7c8.4-2.7,15-7.2,21.1-11.3
	c7.8-5.4,15.3-10.5,25-10.5c6.5,0,11.2,2.9,16.7,6.2c5.7-3.5,11.5-6.2,18.6-6.2c6.5,0,11.2,2.9,16.7,6.2c5.7,3.5,12.5,7.6,23.2,9.4
	c5.4-0.6,9.5-1.2,13.3-1.9c5.4-0.9,10.1-1.7,16.5-1.7c5.8,0,10.8,0.9,15.6,2.2c1.2-0.2,2.3-0.4,3.3-0.5c5.4-0.9,10.1-1.7,16.5-1.7
	c9.7,0,17,2.5,24.9,5.2c4.5,1.6,9.4,3.2,15.1,4.5c8.9-3.2,16.1-9,23.1-14.8c9.6-7.9,18.8-15.4,31.5-15.4c6.8,0,12.3,2.2,17.1,5.5
	c5.5-3.3,11.3-5.5,18.2-5.5c12.7,0,20.6,7.6,29,15.7c3.5,3.4,7.1,6.9,11.1,9.8c5.8-5.9,10.8-14.8,15.9-24c9.2-16.7,18.8-34,35-34
	c7,0,12.7,3.2,17.7,8.2c5-5,10.7-8.2,17.7-8.2c16.2,0,25.7,17.3,35,34c5.1,9.2,10,18.1,15.9,24c4-2.9,7.6-6.3,11.1-9.8
	c8.4-8.1,16.3-15.7,29-15.7c6.9,0,12.8,2.2,18.2,5.5c4.9-3.3,10.3-5.5,17.1-5.5c12.7,0,21.8,7.5,31.5,15.4
	c7,5.7,14.2,11.6,23.1,14.8c5.7-1.3,10.5-3,15.1-4.5c7.8-2.7,15.2-5.2,24.9-5.2c6.3,0,11,0.8,16.5,1.7c1.1,0.2,2.2,0.4,3.3,0.5
	c4.8-1.3,9.8-2.2,15.6-2.2c6.3,0,11,0.8,16.5,1.7c7.7,1.3,17.4,2.9,36,2.9v1.2c-18.8,0-28.4-1.6-36.2-2.9c-5.4-0.9-10-1.7-16.3-1.7
	c-4.5,0-8.6,0.6-12.4,1.5c6.8,1,15.7,1.9,29.5,1.9v1.2c-16,0-25.4-1.2-32.6-2.3c-3,0.8-6,1.9-9,2.9c-9.5,3.2-20.2,6.9-37.2,6.9
	c-5.1,0-9.6-0.9-13.8-2.3c-6,1.3-13,2.3-21.6,2.3c-16.3,0-27.1-8.9-37.6-17.4c-4.1-3.4-8.2-6.7-12.4-9.3c-3.9,2.7-7.4,6.1-11,9.6
	c-8.7,8.4-17.7,17.1-32.7,17.1c-5.7,0-10.5-2.5-14.8-6.6c-5.6,3.9-12.2,6.6-20.6,6.6c-14.1,0-22.6-15.4-31.6-31.7
	c-5-9-10.1-18.2-16.2-24.6c-6.1,6.4-11.2,15.6-16.2,24.6c-9,16.3-17.5,31.7-31.6,31.7c-8.4,0-14.9-2.7-20.6-6.6
	c-4.3,4.1-9.1,6.6-14.8,6.6c-15,0-24-8.7-32.7-17.1c-3.6-3.5-7.1-6.9-11-9.6c-4.2,2.6-8.3,5.9-12.4,9.3
	c-10.4,8.6-21.3,17.4-37.6,17.4c-8.6,0-15.6-0.9-21.6-2.3c-4.2,1.4-8.7,2.3-13.8,2.3c-17,0-27.7-3.7-37.2-6.9c-3-1-5.9-2-9-2.9
	c-7.2,1.2-16.6,2.3-32.6,2.3c-4.8,0-9-0.4-12.7-1c-5.8,0.6-13.1,1-22.7,1c-18.3,0-28-5.6-35.7-10.2c-1.9,1.2-3.8,2.5-5.7,3.8
	c-9.5,6.5-20.3,13.9-37.3,13.9c-7.6,0-14-0.9-19.8-2.3c-4.6,1.4-9.7,2.3-15.6,2.3c-16.2,0-27-4.1-37.4-8.1
	c-4.2-1.6-8.3-3.2-12.6-4.4c-3.9,1.3-7.5,2.9-11.2,4.6c-8.7,3.9-17.6,8-32.5,8c-5.3,0-9.8-1.3-13.9-3.4c-5.9,2-12.6,3.4-21.5,3.4
	c-14,0-22.9-9.3-31.5-18.2c-5-5.2-10.1-10.5-16.3-14.2c-6.2,3.7-11.3,9-16.3,14.2c-8.6,9-17.5,18.2-31.5,18.2
	c-8.9,0-15.6-1.4-21.5-3.4c-4.1,2.1-8.6,3.4-13.9,3.4c-14.9,0-23.9-4.1-32.5-8c-3.7-1.7-7.2-3.3-11.2-4.6c-4.3,1.3-8.4,2.8-12.6,4.4
	c-10.4,4-21.2,8.1-37.4,8.1c-7.2,0-13.2-0.7-18.5-1.7c-5,1-10.5,1.7-16.9,1.7c-17,0-27.7-3.7-37.2-6.9c-3-1-5.9-2-9-2.9
	c-7.2,1.2-16.6,2.3-32.6,2.3c-7.1,0-12.8-0.2-17.7-0.6c-4.9,0.4-10.6,0.6-17.7,0.6c-16,0-25.4-1.2-32.6-2.3c-3,0.8-6,1.9-9,2.9
	c-9.5,3.2-20.2,6.9-37.2,6.9c-5.1,0-9.6-0.9-13.8-2.3c-6,1.3-13,2.3-21.6,2.3c-16.3,0-27.1-8.9-37.6-17.4c-4.1-3.4-8.2-6.7-12.4-9.3
	c-3.9,2.7-7.4,6.1-11,9.6c-8.7,8.4-17.7,17.1-32.7,17.1c-5.7,0-10.5-2.5-14.8-6.6c-5.6,3.9-12.2,6.6-20.6,6.6
	c-14.1,0-22.6-15.4-31.6-31.7c-5-9-10.1-18.2-16.2-24.6c-6.1,6.4-11.2,15.6-16.2,24.6c-9,16.3-17.5,31.7-31.6,31.7
	c-8.4,0-14.9-2.7-20.6-6.6c-4.3,4.1-9.1,6.6-14.8,6.6c-15,0-24-8.7-32.7-17.1c-3.6-3.5-7.1-6.9-11-9.6c-4.2,2.6-8.3,5.9-12.4,9.3
	C793.8,57.2,783,66,766.6,66c-8.6,0-15.6-0.9-21.6-2.3c-4.2,1.4-8.7,2.3-13.8,2.3c-17,0-27.7-3.7-37.2-6.9c-3-1-5.9-2-9-2.9
	c-7.2,1.2-16.6,2.3-32.6,2.3c-4.8,0-9-0.4-12.7-1c-5.8,0.6-13.1,1-22.7,1c-18.3,0-28-5.6-35.7-10.2c-1.9,1.2-3.8,2.5-5.7,3.8
	c-9.5,6.5-20.3,13.9-37.3,13.9c-7.6,0-14-0.9-19.8-2.3c-4.6,1.4-9.7,2.3-15.6,2.3c-16.2,0-27-4.1-37.4-8.1
	c-4.2-1.6-8.3-3.2-12.6-4.4c-3.9,1.3-7.5,2.9-11.2,4.6c-8.7,3.9-17.6,8-32.5,8c-5.3,0-9.8-1.3-13.9-3.4c-5.9,2-12.6,3.4-21.5,3.4
	c-14,0-22.9-9.3-31.5-18.2c-5-5.2-10.1-10.5-16.3-14.2c-6.2,3.7-11.3,9-16.3,14.2c-8.6,9-17.6,18.2-31.5,18.2
	c-8.9,0-15.6-1.4-21.5-3.4c-4.1,2.1-8.6,3.4-13.9,3.4c-14.9,0-23.9-4.1-32.5-8c-3.7-1.7-7.2-3.3-11.2-4.6c-4.3,1.3-8.4,2.8-12.6,4.4
	c-10.4,4-21.2,8.1-37.4,8.1c-7.2,0-13.2-0.7-18.5-1.7c-5,1-10.5,1.7-16.9,1.7c-17,0-27.7-3.7-37.2-6.9c-3-1-5.9-2-9-2.9
	c-7.2,1.2-16.6,2.3-32.6,2.3v-1.2c13.8,0,22.7-0.9,29.5-1.9c-3.8-0.9-7.9-1.5-12.4-1.5C45.7,54.2,41,54.9,35.7,55.8L35.7,55.8z
	 M2390.5,65c16.8,0,27.4-3.6,36.8-6.9c2.2-0.8,4.3-1.5,6.5-2.2l-0.8-0.1c-5.4-0.9-10-1.7-16.3-1.7c-9.4,0-16.7,2.5-24.5,5.1
	c-4,1.4-8.3,2.8-13.2,4.1C2382.6,64.4,2386.3,65,2390.5,65z M2318.3,47.9c10.3,8.4,20.9,17.1,36.8,17.1c7.6,0,13.9-0.7,19.4-1.9
	c-8.2-3.3-15-8.9-21.6-14.3c-9.5-7.8-18.4-15.1-30.7-15.1c-6.3,0-11.4,2-16,5C2310.4,41.4,2314.3,44.6,2318.3,47.9z M2261.4,65
	c14.5,0,23.3-8.5,31.9-16.8c3.5-3.4,7-6.7,10.7-9.4c-5.2-3-10.7-5.1-17.1-5.1c-12.2,0-19.9,7.5-28.1,15.4c-3.5,3.4-7.1,6.8-11.1,9.7
	C2251.7,62.7,2256.2,65,2261.4,65L2261.4,65z M2195.5,34c8.8,16,17.2,31,30.5,31c8,0,14.2-2.6,19.7-6.3c-5.9-6-10.8-14.9-15.9-24.1
	c-9.1-16.4-18.5-33.3-33.9-33.3c-6.5,0-12,3.1-16.8,7.8C2185.3,15.6,2190.4,24.9,2195.5,34L2195.5,34z M2130.4,65
	c13.4,0,21.7-15.1,30.5-31c5-9.1,10.2-18.3,16.4-24.9c-4.8-4.8-10.3-7.8-16.8-7.8c-15.4,0-24.8,16.9-33.9,33.3
	c-5.1,9.2-10,18.1-15.9,24.1C2116.1,62.4,2122.4,65,2130.4,65L2130.4,65z M2063.1,48.2c8.5,8.2,17.3,16.8,31.9,16.8
	c5.2,0,9.7-2.3,13.7-6.1c-4-2.9-7.6-6.3-11.1-9.7c-8.2-7.9-15.9-15.4-28.1-15.4c-6.4,0-11.9,2-17.1,5.1
	C2056.2,41.5,2059.6,44.8,2063.1,48.2z M2001.3,65c15.9,0,26.5-8.7,36.8-17.1c4-3.3,7.9-6.5,12.1-9.1c-4.6-3-9.7-5-16-5
	c-12.3,0-21.2,7.3-30.7,15.1c-6.6,5.4-13.4,11-21.6,14.3C1987.4,64.2,1993.7,65,2001.3,65L2001.3,65z M1929.1,58.1
	c9.4,3.2,20,6.9,36.8,6.9c4.1,0,7.9-0.6,11.4-1.6c-4.9-1.2-9.1-2.7-13.2-4.1c-7.7-2.6-15-5.1-24.5-5.1c-6.2,0-10.9,0.8-16.3,1.7
	c-0.2,0-0.5,0.1-0.8,0.1C1924.8,56.6,1926.9,57.4,1929.1,58.1z M1887.2,57.5c13.8,0,22.7-0.9,29.5-1.9c-3.8-0.9-7.9-1.5-12.4-1.5
	c-6.2,0-10.9,0.8-16.3,1.7c-2.5,0.4-5.3,0.9-8.4,1.3C1881.9,57.4,1884.4,57.5,1887.2,57.5L1887.2,57.5z M1851.8,57.5
	c7.5,0,13.5-0.3,18.5-0.7c-8.6-2.1-14.5-5.7-19.6-8.7c-5.3-3.2-9.9-6-16.1-6c-6.5,0-12.1,2.4-17.4,5.7
	C1824.7,52.3,1834.2,57.5,1851.8,57.5z M1773,65c16.7,0,27.3-7.3,36.6-13.7c1.7-1.2,3.5-2.4,5.2-3.5c-5.1-3.1-9.6-5.7-15.6-5.7
	c-9.4,0-16.6,5-24.3,10.3c-5.7,3.9-11.8,8.1-19.4,10.8C1760.7,64.3,1766.4,65,1773,65z M1700.7,56.9c10.3,4,21,8.1,36.9,8.1
	c4.9,0,9.2-0.6,13.2-1.7c-5.5-1.5-10.4-3.4-15.2-5.2c-9.5-3.6-18.5-7.1-30.9-7.1c-5.8,0-10.6,0.8-14.9,2
	C1693.5,54.2,1697.1,55.5,1700.7,56.9z M1643.9,65c14.6,0,23.5-4,32-7.9c3.2-1.4,6.2-2.8,9.5-4c-4.9-1.3-10.1-2.1-16.1-2.1
	c-12.3,0-20.1,3.5-28.3,7.2c-3,1.4-6.1,2.8-9.4,4C1635.3,63.9,1639.3,65,1643.9,65z M1577.9,47.1c8.9,9.2,17.2,17.9,30.7,17.9
	c8.1,0,14.5-1.2,20-3c-6.1-3.5-11.2-8.8-16.2-14c-9.1-9.4-18.5-19.2-34-19.2c-6.4,0-11.7,1.6-16.4,4.2
	C1568,36.8,1573,42,1577.9,47.1z M1512.9,65c13.5,0,21.8-8.7,30.6-17.9c4.9-5.1,9.9-10.3,15.9-14.1c-4.7-2.6-10.1-4.2-16.4-4.2
	c-15.5,0-24.9,9.8-34,19.2c-5,5.2-10.1,10.4-16.2,14C1498.4,63.7,1504.8,65,1512.9,65L1512.9,65z M1445.5,57.1
	c8.5,3.9,17.4,7.9,32,7.9c4.6,0,8.6-1,12.3-2.8c-3.3-1.2-6.4-2.6-9.4-4c-8.2-3.7-16-7.2-28.3-7.2c-6,0-11.3,0.8-16.1,2.1
	C1439.3,54.3,1442.4,55.7,1445.5,57.1z M1383.8,65c16,0,26.6-4.1,36.9-8.1c3.6-1.4,7.2-2.8,10.9-3.9c-4.3-1.2-9.1-2-14.9-2
	c-12.4,0-21.4,3.4-30.9,7.1c-5.4,2.1-11,4.2-17.3,5.8C1373.1,64.6,1378.1,65,1383.8,65z M1311.7,58.1c9.4,3.2,20,6.9,36.8,6.9
	c5,0,9.5-0.4,13.6-1.1c-5.8-1.3-10.8-3-15.4-4.6c-7.7-2.6-15-5.1-24.5-5.1c-6.2,0-10.9,0.8-16.3,1.7c-0.2,0-0.5,0.1-0.8,0.1
	C1307.3,56.6,1309.5,57.4,1311.7,58.1L1311.7,58.1z M1269.7,57.5c13.8,0,22.7-0.9,29.5-1.9c-3.8-0.9-7.9-1.5-12.4-1.5
	c-6.2,0-10.9,0.8-16.3,1.7c-3,0.5-6.2,1-10.2,1.5C1263.2,57.5,1266.3,57.5,1269.7,57.5z M1234.3,57.5c3.4,0,6.5-0.1,9.3-0.1
	c-3.9-0.5-7.2-1-10.2-1.5c-5.4-0.9-10-1.7-16.3-1.7c-4.5,0-8.6,0.6-12.4,1.5C1211.6,56.6,1220.5,57.5,1234.3,57.5z M1155.6,65
	c16.8,0,27.4-3.6,36.8-6.9c2.2-0.8,4.3-1.5,6.5-2.2l-0.8-0.1c-5.4-0.9-10-1.7-16.3-1.7c-9.4,0-16.7,2.5-24.5,5.1
	c-4,1.4-8.3,2.8-13.2,4.1C1147.7,64.4,1151.5,65,1155.6,65z M1083.4,47.9c10.3,8.4,20.9,17.1,36.8,17.1c7.6,0,13.9-0.7,19.4-1.9
	c-8.2-3.3-15-8.9-21.6-14.3c-9.5-7.8-18.4-15.1-30.7-15.1c-6.3,0-11.4,2-16,5C1075.5,41.4,1079.4,44.6,1083.4,47.9L1083.4,47.9z
	 M1026.5,65c14.5,0,23.3-8.5,31.9-16.8c3.5-3.4,7-6.7,10.7-9.4c-5.2-3-10.7-5.1-17.1-5.1c-12.2,0-19.9,7.5-28.1,15.4
	c-3.5,3.4-7.1,6.8-11.1,9.8C1016.8,62.7,1021.3,65,1026.5,65z M960.6,34c8.8,16,17.2,31,30.5,31c8,0,14.2-2.6,19.7-6.3
	c-5.9-6-10.8-14.9-15.9-24.1C985.8,18.2,976.4,1.3,961,1.3c-6.5,0-12,3.1-16.8,7.8C950.4,15.6,955.6,24.9,960.6,34L960.6,34z
	 M895.5,65c13.4,0,21.7-15.1,30.5-31c5-9.1,10.2-18.3,16.4-24.9c-4.8-4.8-10.3-7.8-16.8-7.8c-15.4,0-24.8,16.9-33.9,33.3
	c-5.1,9.2-10,18.1-15.9,24.1C881.2,62.4,887.5,65,895.5,65L895.5,65z M828.2,48.2c8.5,8.2,17.3,16.8,31.9,16.8
	c5.2,0,9.7-2.3,13.7-6.1c-4-2.9-7.6-6.3-11.1-9.8c-8.2-7.9-15.9-15.4-28.1-15.4c-6.4,0-11.9,2-17.1,5.1
	C821.3,41.5,824.7,44.8,828.2,48.2z M766.4,65c15.9,0,26.5-8.7,36.8-17.1c4-3.3,7.9-6.5,12.1-9.1c-4.6-3-9.7-5-16-5
	c-12.3,0-21.2,7.3-30.7,15.1c-6.6,5.4-13.4,11-21.6,14.3C752.5,64.2,758.8,65,766.4,65L766.4,65z M694.2,58.1
	c9.4,3.2,20,6.9,36.8,6.9c4.1,0,7.9-0.6,11.4-1.6c-4.9-1.2-9.1-2.7-13.2-4.1c-7.7-2.6-15-5.1-24.5-5.1c-6.2,0-10.9,0.8-16.3,1.7
	c-0.2,0-0.5,0.1-0.8,0.1C689.9,56.6,692.1,57.4,694.2,58.1z M652.3,57.5c13.8,0,22.7-0.9,29.5-1.9c-3.8-0.9-7.9-1.5-12.4-1.5
	c-6.2,0-10.9,0.8-16.3,1.7c-2.5,0.4-5.3,0.9-8.4,1.3C647,57.4,649.5,57.5,652.3,57.5L652.3,57.5z M616.9,57.5
	c7.5,0,13.5-0.3,18.5-0.7c-8.6-2.1-14.5-5.7-19.6-8.7c-5.3-3.2-9.9-6-16.1-6c-6.5,0-12.1,2.4-17.4,5.7
	C589.8,52.3,599.3,57.5,616.9,57.5z M538.1,65c16.7,0,27.3-7.3,36.6-13.7c1.7-1.2,3.5-2.4,5.2-3.5c-5.1-3.1-9.6-5.7-15.6-5.7
	c-9.4,0-16.6,5-24.3,10.3c-5.7,3.9-11.8,8.1-19.4,10.8C525.8,64.3,531.5,65,538.1,65L538.1,65z M465.8,56.9c10.3,4,21,8.1,36.9,8.1
	c4.9,0,9.2-0.6,13.2-1.7c-5.5-1.5-10.4-3.4-15.2-5.2c-9.5-3.6-18.5-7.1-30.9-7.1c-5.8,0-10.6,0.8-14.9,2
	C458.6,54.2,462.2,55.5,465.8,56.9z M409.1,65c14.6,0,23.5-4,32-7.9c3.2-1.4,6.2-2.8,9.5-4c-4.9-1.3-10.1-2.1-16.1-2.1
	c-12.3,0-20.1,3.5-28.3,7.2c-3,1.4-6.1,2.8-9.4,4C400.4,63.9,404.4,65,409.1,65z M343,47.1c8.8,9.2,17.2,17.9,30.6,17.9
	c8.1,0,14.5-1.2,20-3c-6.1-3.5-11.2-8.8-16.2-14c-9.1-9.4-18.4-19.2-34-19.2c-6.4,0-11.7,1.6-16.4,4.2C333.1,36.8,338.1,42,343,47.1
	L343,47.1z M278,65c13.5,0,21.8-8.7,30.6-17.9c4.9-5.1,9.9-10.3,15.9-14.1c-4.7-2.6-10.1-4.2-16.4-4.2c-15.5,0-24.9,9.8-34,19.2
	c-5,5.2-10.1,10.4-16.2,14C263.5,63.7,269.9,65,278,65L278,65z M210.6,57.1c8.5,3.9,17.4,7.9,32,7.9c4.6,0,8.6-1,12.3-2.8
	c-3.3-1.2-6.4-2.6-9.4-4c-8.2-3.7-16-7.2-28.3-7.2c-6,0-11.2,0.8-16.1,2.1C204.4,54.3,207.5,55.7,210.6,57.1z M149,65
	c16,0,26.6-4.1,36.9-8.1c3.6-1.4,7.2-2.8,10.9-3.9c-4.3-1.2-9.1-2-14.9-2c-12.4,0-21.4,3.4-30.9,7.1c-5.4,2.1-11,4.2-17.3,5.8
	C138.2,64.6,143.2,65,149,65z M76.8,58.1c9.4,3.2,20,6.9,36.8,6.9c5,0,9.5-0.4,13.6-1.1c-5.8-1.3-10.8-3-15.4-4.6
	c-7.7-2.6-15-5.1-24.5-5.1c-6.2,0-10.9,0.8-16.3,1.7c-0.2,0-0.5,0.1-0.8,0.1C72.5,56.6,74.6,57.4,76.8,58.1L76.8,58.1z"/>
</svg>
