<!-- Generator: Adobe Illustrator 22.1.0, SVG Export Plug-In  -->
<svg version="1.1"
	 xmlns="http://www.w3.org/2000/svg" xmlns:xlink="http://www.w3.org/1999/xlink" xmlns:a="http://ns.adobe.com/AdobeSVGViewerExtensions/3.0/"
	 x="0px" y="0px" width="491.2px" height="81.2px" viewBox="0 0 491.2 81.2" style="enable-background:new 0 0 491.2 81.2;"
	 xml:space="preserve">
<style type="text/css">
	.st0{fill:#CCD5E7;}
</style>
<defs>
</defs>
<path class="st0" d="M490.9,0.8H0.4C0.2,0.8,0,0.6,0,0.4S0.2,0,0.4,0h490.5c0.2,0,0.4,0.2,0.4,0.4S491.1,0.8,490.9,0.8z"/>
<path class="st0" d="M490.9,20.9H0.4c-0.2,0-0.4-0.2-0.4-0.4s0.2-0.4,0.4-0.4h490.5c0.2,0,0.4,0.2,0.4,0.4S491.1,20.9,490.9,20.9z"
	/>
<path class="st0" d="M490.9,41H0.4C0.2,41,0,40.8,0,40.6s0.2-0.4,0.4-0.4h490.5c0.2,0,0.4,0.2,0.4,0.4S491.1,41,490.9,41z"/>
<path class="st0" d="M490.9,61.1H0.4c-0.2,0-0.4-0.2-0.4-0.4s0.2-0.4,0.4-0.4h490.5c0.2,0,0.4,0.2,0.4,0.4S491.1,61.1,490.9,61.1z"
	/>
<path class="st0" d="M490.9,81.2H0.4C0.2,81.2,0,81,0,80.8s0.2-0.4,0.4-0.4h490.5c0.2,0,0.4,0.2,0.4,0.4S491.1,81.2,490.9,81.2z"/>
</svg>
