<svg xmlns="http://www.w3.org/2000/svg" width="68.5" height="43.3" viewBox="0 0 68.5 43.3"><style type="text/css">.st0{fill:#FFFFFF;}</style><path class="st0" d="M42.8 5.2v-.1c0-.1 0-.3-.1-.4v-.1l-.2-.3-5-4.1c-.5-.3-1.2-.3-1.5.2-.3.4-.3 1.1.1 1.4l2.9 2.3h-11.6c-.6 0-1 .4-1 1s.4 1 1 1h11.2l-2.6 1.9c-.5.3-.6.9-.2 1.4.2.3.5.4.8.4.2 0 .4-.1.6-.2l5.2-3.7v-.1l.2-.2.1-.1c.1-.1.1-.2.1-.3zM11 25.8c0-2.1 1.6-3.4 3.6-3.4 1.6 0 2.5.9 2.9 1.8l-1.5.7c-.2-.5-.8-1-1.4-1-1.1 0-1.9.8-1.9 1.9 0 1.1.8 1.9 1.9 1.9.6 0 1.2-.4 1.4-1l1.5.7c-.4.8-1.3 1.8-2.9 1.8-2.1.1-3.6-1.3-3.6-3.4zM24 29.2l-1.1-2.2h-.9v2.2h-1.7v-6.7h3.3c1.5 0 2.3 1 2.3 2.2 0 1.2-.7 1.8-1.3 2l1.4 2.4h-2zm.2-4.5c0-.5-.4-.7-.8-.7h-1.4v1.4h1.4c.5 0 .8-.2.8-.7zM29 29.2v-6.7h4.9v1.5h-3.2v1h3.1v1.5h-3.1v1.1h3.2v1.5h-4.9zM41.6 29.2l-.3-1h-2.6l-.3 1h-1.9l2.5-6.7h2l2.5 6.7h-1.9zm-1.6-5l-.8 2.5h1.7l-.9-2.5zM46.9 29.2v-5.2h-1.9v-1.5h5.4v1.5h-1.9v5.2h-1.6zM53.3 29.2v-6.7h4.9v1.5h-3.2v1h3.1v1.5h-3.1v1.1h3.2v1.5h-4.9zM2.5 43.2v-2.7l-2.5-4h1.9l1.5 2.5 1.4-2.5h1.9l-2.5 4v2.7h-1.7zM8.5 39.8c0-2 1.5-3.4 3.6-3.4 2 0 3.6 1.4 3.6 3.4s-1.5 3.4-3.6 3.4c-2 .1-3.6-1.3-3.6-3.4zm5.4 0c0-1.1-.7-1.9-1.8-1.9s-1.8.8-1.8 1.9c0 1.1.7 1.9 1.8 1.9 1.1.1 1.8-.8 1.8-1.9zM18.6 40.5v-4h1.8v3.9c0 .8.5 1.4 1.4 1.4.9 0 1.4-.6 1.4-1.4v-3.9h1.7v4c0 1.7-1 2.8-3.1 2.8-2.2 0-3.2-1.2-3.2-2.8zM31.9 43.2l-1.1-2.2h-.9v2.2h-1.7v-6.7h3.3c1.5 0 2.3 1 2.3 2.2 0 1.2-.7 1.8-1.3 2l1.4 2.4h-2zm.2-4.5c0-.5-.4-.7-.8-.7h-1.4v1.4h1.4c.4 0 .8-.2.8-.7zM41 39.8c0-2 1.5-3.4 3.6-3.4s3.6 1.4 3.6 3.4-1.5 3.4-3.6 3.4-3.6-1.3-3.6-3.4zm5.4 0c0-1.1-.7-1.9-1.8-1.9s-1.8.8-1.8 1.9c0 1.1.7 1.9 1.8 1.9s1.8-.8 1.8-1.9zM56 43.2l-1-4.2-1 4.2h-1.8l-1.9-6.7h1.9l1 4.4 1.1-4.4h1.3l1.1 4.4 1-4.4h1.9l-1.9 6.7h-1.7zM66.9 43.2l-2.8-3.9v3.9h-1.7v-6.7h1.8l2.7 3.7v-3.7h1.7v6.7h-1.7z"/></svg>