<?xml version="1.0" encoding="UTF-8"?>
<svg width="204px" height="40px" viewBox="0 0 204 40" version="1.1" xmlns="http://www.w3.org/2000/svg" xmlns:xlink="http://www.w3.org/1999/xlink">
    <!-- Generator: Sketch 55 (78076) - https://sketchapp.com -->
    <title>hedgehogLogoHorizontal</title>
    <desc>Created with Sketch.</desc>
    <g id="Page-1" stroke="none" stroke-width="1" fill="none" fill-rule="evenodd">
        <g id="assets" transform="translate(-1206.000000, -3805.000000)" fill="#FAFAFA">
            <g id="HedgehogLogoH" transform="translate(1206.000000, 3805.000000)">
                <path d="M20.819887,19.065811 C22.0809798,19.065811 23.1037272,18.032036 23.1037272,16.7573458 C23.1037272,15.4822479 22.0809798,14.4488806 20.819887,14.4488806 C19.558391,14.4488806 18.5360469,15.4822479 18.5360469,16.7573458 C18.5360469,18.032036 19.558391,19.065811 20.819887,19.065811 Z M62.4286883,17.1022092 C64.24713,17.7748152 65.9824936,18.6190376 67.3270677,19.6744175 C67.7271329,19.9883003 67.4702362,20.6303332 66.9677349,20.5691872 C62.8380292,20.0686053 61.9088454,21.8145274 61.7059898,22.4838722 C60.6925181,27.4203924 56.3966562,31.4768178 47.3915588,33.240676 L47.3915588,37.3513175 C47.3915588,38.1449926 46.7491153,38.7943631 45.9643099,38.7943631 C45.1791012,38.7943631 44.5366577,38.1449926 44.5366577,37.3513175 L44.5366577,33.7021244 C43.8905846,33.7856906 43.2255568,33.8598811 42.538348,33.9226577 L42.538348,35.6200705 C42.538348,36.4137456 41.8959045,37.0631161 41.1106958,37.0631161 C40.3254871,37.0631161 39.6830437,36.4137456 39.6830437,35.6200705 L39.6830437,34.1171019 C38.5877038,34.166834 37.4467919,34.1925153 36.2574851,34.1925153 C35.478729,34.1925153 34.7189277,34.1721333 33.9736449,34.136261 L33.9736449,38.505754 C33.9736449,39.299429 33.3312014,39.9487995 32.5459927,39.9487995 C31.760784,39.9487995 31.1187439,39.299429 31.1187439,38.505754 L31.1187439,33.907575 C30.4379877,33.830531 29.7705401,33.7404426 29.1200308,33.6340486 L29.1200308,36.774507 C29.1200308,37.568182 28.4775874,38.2171448 27.692782,38.2171448 C26.9075733,38.2171448 26.2651298,37.568182 26.2651298,36.774507 L26.2651298,33.0556074 C12.9488454,29.8389204 6.53529958,20.5520664 3.87922129,15.2409251 C3.56062095,15.3648476 3.21661324,15.435777 2.8548607,15.435777 C1.27799066,15.435777 -4.03291571e-05,14.1435582 -4.03291571e-05,12.5500936 C-4.03291571e-05,10.9562212 1.27799066,9.66441015 2.8548607,9.66441015 C4.37930284,9.66441015 5.62063429,10.872655 5.70209919,12.3931522 C12.4721548,14.0661066 15.4472367,12.7188565 18.5352403,10.8269994 C19.2502762,10.2611951 32.4330711,-0.0716631083 41.2788684,0.286652433 C42.2443484,0.325378231 42.6173931,1.50386541 41.832991,2.03746614 C41.0768193,2.55109252 40.4299397,3.06594181 39.8673479,3.57589942 C43.0150386,2.62895175 47.0741683,1.69015688 50.6263604,1.76638556 C51.7620295,1.7912516 52.1556421,3.33253836 51.1752403,3.91301769 C50.2428302,4.46496222 49.6391027,5.03361999 49.2527494,5.56925892 C51.9628687,5.21583506 55.2158185,5.03076651 57.9295675,5.5700742 C58.7716403,5.73720659 58.8567348,6.90346457 58.0485385,7.19451952 C56.8894785,7.6123505 56.1829117,8.12842271 55.7534062,8.63063516 C58.0864479,8.83282459 60.5239422,9.23883401 62.5936345,10.0051972 C63.4917648,10.3378314 63.3836827,11.6357571 62.4436101,11.8143034 C61.2365584,12.0433971 60.4166666,12.4241328 59.8577045,12.844002 C61.9157014,13.3653735 64.0099945,14.0877116 65.6985763,15.0868372 C66.3478758,15.4712417 66.0744441,16.4654756 65.3223053,16.4666985 C63.9523238,16.4687367 63.0388684,16.7426707 62.4286883,17.1022092 Z M89.038,11.8 L92.6,11.8 L92.6,30 L89.038,30 L89.038,22.46 L82.278,22.46 L82.278,30 L78.69,30 L78.69,11.8 L82.278,11.8 L82.278,19.028 L89.038,19.028 L89.038,11.8 Z M98.858,24.878 C99.326,26.594 100.756,27.322 102.524,27.322 C103.824,27.322 104.864,26.776 105.436,26.022 L108.14,27.582 C106.918,29.35 104.968,30.364 102.472,30.364 C98.104,30.364 95.348,27.374 95.348,23.5 C95.348,19.626 98.13,16.636 102.212,16.636 C106.06,16.636 108.79,19.678 108.79,23.5 C108.79,23.994 108.738,24.436 108.66,24.878 L98.858,24.878 Z M98.806,22.278 L105.436,22.278 C105.02,20.406 103.616,19.652 102.212,19.652 C100.418,19.652 99.196,20.614 98.806,22.278 Z M121.08,11.8 L124.434,11.8 L124.434,30 L121.08,30 L121.08,28.466 C120.144,29.662 118.766,30.364 116.868,30.364 C113.384,30.364 110.524,27.374 110.524,23.5 C110.524,19.626 113.384,16.636 116.868,16.636 C118.766,16.636 120.144,17.338 121.08,18.534 L121.08,11.8 Z M117.492,27.166 C119.546,27.166 121.08,25.684 121.08,23.5 C121.08,21.316 119.546,19.834 117.492,19.834 C115.412,19.834 113.878,21.316 113.878,23.5 C113.878,25.684 115.412,27.166 117.492,27.166 Z M137.66,17 L140.936,17 L140.936,29.376 C140.936,33.64 137.582,35.564 134.15,35.564 C131.368,35.564 129.132,34.498 127.988,32.392 L130.848,30.754 C131.394,31.768 132.252,32.574 134.254,32.574 C136.36,32.574 137.66,31.43 137.66,29.376 L137.66,27.972 C136.75,29.194 135.346,29.948 133.5,29.948 C129.808,29.948 127.026,26.958 127.026,23.292 C127.026,19.652 129.808,16.636 133.5,16.636 C135.346,16.636 136.75,17.39 137.66,18.612 L137.66,17 Z M134.02,26.854 C136.126,26.854 137.66,25.372 137.66,23.292 C137.66,21.238 136.126,19.756 134.02,19.756 C131.914,19.756 130.38,21.238 130.38,23.292 C130.38,25.372 131.914,26.854 134.02,26.854 Z M147.012,24.878 C147.48,26.594 148.91,27.322 150.678,27.322 C151.978,27.322 153.018,26.776 153.59,26.022 L156.294,27.582 C155.072,29.35 153.122,30.364 150.626,30.364 C146.258,30.364 143.502,27.374 143.502,23.5 C143.502,19.626 146.284,16.636 150.366,16.636 C154.214,16.636 156.944,19.678 156.944,23.5 C156.944,23.994 156.892,24.436 156.814,24.878 L147.012,24.878 Z M146.96,22.278 L153.59,22.278 C153.174,20.406 151.77,19.652 150.366,19.652 C148.572,19.652 147.35,20.614 146.96,22.278 Z M166.712,16.636 C169.468,16.636 171.626,18.56 171.626,22.018 L171.626,30 L168.272,30 L168.272,22.434 C168.272,20.666 167.206,19.756 165.698,19.756 C164.06,19.756 162.838,20.718 162.838,22.98 L162.838,30 L159.484,30 L159.484,11.8 L162.838,11.8 L162.838,18.456 C163.618,17.286 164.97,16.636 166.712,16.636 Z M180.874,30.364 C177.052,30.364 174.01,27.374 174.01,23.5 C174.01,19.626 177.052,16.636 180.874,16.636 C184.696,16.636 187.764,19.626 187.764,23.5 C187.764,27.374 184.696,30.364 180.874,30.364 Z M180.874,27.088 C182.876,27.088 184.41,25.606 184.41,23.5 C184.41,21.394 182.876,19.912 180.874,19.912 C178.898,19.912 177.364,21.394 177.364,23.5 C177.364,25.606 178.898,27.088 180.874,27.088 Z M200.288,17 L203.564,17 L203.564,29.376 C203.564,33.64 200.21,35.564 196.778,35.564 C193.996,35.564 191.76,34.498 190.616,32.392 L193.476,30.754 C194.022,31.768 194.88,32.574 196.882,32.574 C198.988,32.574 200.288,31.43 200.288,29.376 L200.288,27.972 C199.378,29.194 197.974,29.948 196.128,29.948 C192.436,29.948 189.654,26.958 189.654,23.292 C189.654,19.652 192.436,16.636 196.128,16.636 C197.974,16.636 199.378,17.39 200.288,18.612 L200.288,17 Z M196.648,26.854 C198.754,26.854 200.288,25.372 200.288,23.292 C200.288,21.238 198.754,19.756 196.648,19.756 C194.542,19.756 193.008,21.238 193.008,23.292 C193.008,25.372 194.542,26.854 196.648,26.854 Z" id="Combined-Shape"></path>
            </g>
        </g>
    </g>
</svg>