<?xml version="1.0" encoding="UTF-8"?>
<svg width="26px" height="25px" viewBox="0 0 26 25" version="1.1" xmlns="http://www.w3.org/2000/svg" xmlns:xlink="http://www.w3.org/1999/xlink">
    <!-- Generator: Sketch 55 (78076) - https://sketchapp.com -->
    <title>Brands/github</title>
    <desc>Created with Sketch.</desc>
    <g id="Page-1" stroke="none" stroke-width="1" fill="none" fill-rule="evenodd">
        <g id="assets" transform="translate(-1144.000000, -3937.000000)" fill="#FFFFFF">
            <g id="Brands/github" transform="translate(1144.000000, 3937.000000)">
                <path d="M8.695,20.17 C8.695,20.27 8.58,20.35 8.435,20.35 C8.27,20.365 8.155,20.285 8.155,20.17 C8.155,20.07 8.27,19.99 8.415,19.99 C8.565,19.975 8.695,20.055 8.695,20.17 Z M7.14,19.945 C7.105,20.045 7.205,20.16 7.355,20.19 C7.485,20.24 7.635,20.19 7.665,20.09 C7.695,19.99 7.6,19.875 7.45,19.83 C7.32,19.795 7.175,19.845 7.14,19.945 Z M9.35,19.86 C9.205,19.895 9.105,19.99 9.12,20.105 C9.135,20.205 9.265,20.27 9.415,20.235 C9.56,20.2 9.66,20.105 9.645,20.005 C9.63,19.91 9.495,19.845 9.35,19.86 Z M12.64,0.7 C5.705,0.7 0.4,5.965 0.4,12.9 C0.4,18.445 3.89,23.19 8.875,24.86 C9.515,24.975 9.74,24.58 9.74,24.255 C9.74,23.945 9.725,22.235 9.725,21.185 C9.725,21.185 6.225,21.935 5.49,19.695 C5.49,19.695 4.92,18.24 4.1,17.865 C4.1,17.865 2.955,17.08 4.18,17.095 C4.18,17.095 5.425,17.195 6.11,18.385 C7.205,20.315 9.04,19.76 9.755,19.43 C9.87,18.63 10.195,18.075 10.555,17.745 C7.76,17.435 4.94,17.03 4.94,12.22 C4.94,10.845 5.32,10.155 6.12,9.275 C5.99,8.95 5.565,7.61 6.25,5.88 C7.295,5.555 9.7,7.23 9.7,7.23 C10.7,6.95 11.775,6.805 12.84,6.805 C13.905,6.805 14.98,6.95 15.98,7.23 C15.98,7.23 18.385,5.55 19.43,5.88 C20.115,7.615 19.69,8.95 19.56,9.275 C20.36,10.16 20.85,10.85 20.85,12.22 C20.85,17.045 17.905,17.43 15.11,17.745 C15.57,18.14 15.96,18.89 15.96,20.065 C15.96,21.75 15.945,23.835 15.945,24.245 C15.945,24.57 16.175,24.965 16.81,24.85 C21.81,23.19 25.2,18.445 25.2,12.9 C25.2,5.965 19.575,0.7 12.64,0.7 Z M5.26,17.945 C5.195,17.995 5.21,18.11 5.295,18.205 C5.375,18.285 5.49,18.32 5.555,18.255 C5.62,18.205 5.605,18.09 5.52,17.995 C5.44,17.915 5.325,17.88 5.26,17.945 Z M4.72,17.54 C4.685,17.605 4.735,17.685 4.835,17.735 C4.915,17.785 5.015,17.77 5.05,17.7 C5.085,17.635 5.035,17.555 4.935,17.505 C4.835,17.475 4.755,17.49 4.72,17.54 Z M6.34,19.32 C6.26,19.385 6.29,19.535 6.405,19.63 C6.52,19.745 6.665,19.76 6.73,19.68 C6.795,19.615 6.765,19.465 6.665,19.37 C6.555,19.255 6.405,19.24 6.34,19.32 Z M5.77,18.585 C5.69,18.635 5.69,18.765 5.77,18.88 C5.85,18.995 5.985,19.045 6.05,18.995 C6.13,18.93 6.13,18.8 6.05,18.685 C5.98,18.57 5.85,18.52 5.77,18.585 Z" id="Mask"></path>
            </g>
        </g>
    </g>
</svg>