<svg xmlns="http://www.w3.org/2000/svg" viewBox="0 0 418.6 91.6"><path style="fill:#ffffff;" d="M50.2 2h-16.4l-17.6 40v-40h-16.2v87.7h16.2v-24.9l5.6-11.5 12.1 36.3h17l-17.9-50.8 17.2-36.8zm35.3 0h-26.9v87.7h16.2v-33.9h10.6c12.3 0 19.8-7.1 19.8-19.5v-14.7c0-12.6-7.4-19.6-19.7-19.6zm4 34.7c0 4.3-1.7 6.6-5.8 6.6h-8.9v-28h8.9c4.1 0 5.8 2.2 5.8 6.6v14.8zm47.7-36.7c-15.6 0-25.2 10.5-25.2 24v43.2c0 13.5 9.6 24.4 25.1 24.4 15.5 0 23.6-10.1 23.6-23.2v-10.6h-14.5v10.5c0 5.1-2.9 9.1-8.8 9.1s-8.9-4-8.9-8.8v-45.9c0-4.8 3-8.4 8.9-8.4s8.8 3.5 8.8 8.6v10.5h14.5v-10.6c0-13.1-8.1-22.8-23.5-22.8zm67.9 44.5c7.5-1.6 10.3-7.2 10.3-14.7v-9.4c0-12-7.3-18.5-19.3-18.5h-27.2v87.7h27.5c11.9 0 19.4-6.3 19.4-18.5v-11.8c0-7.3-2.9-12.7-10.7-14.8zm-19.8-29.2h8.8c4.1 0 5.8 2.4 5.8 6.3v10.9c0 4.6-2.2 6.8-6.4 6.8h-8.1v-24zm14.8 54.7c0 4.1-1.6 6.3-5.6 6.3h-9.2v-25.1h8.4c4.2 0 6.4 2.4 6.4 6.9v11.9zM246 0h2v89.6h-2zM279.2 5.6c0-2.4 0-2.7-1.4-2.8h-.6c-.1-.1-.1-.5 0-.6 1.1 0 1.8.1 2.8.1.9 0 1.6 0 2.6-.1.1.1.2.5 0 .6h-.4c-1.3.1-1.4.5-1.4 2.8v2.6c0 .4 0 .9.3.9.2 0 .5-.1.6-.2.3-.3.9-.9 1.2-1.1l2.4-2.4c.4-.4 1.5-1.6 1.8-1.9.1-.2.2-.3.2-.4 0-.1-.1-.2-.4-.2l-.6-.1c-.2-.2-.1-.5 0-.6l2.5.1c.8 0 1.6 0 2.2-.1.2.1.2.4 0 .6-.6 0-1.5.3-2.1.6-.6.4-1.9 1.4-3.2 2.6l-2 1.9c-.3.3-.5.5-.5.7 0 .2.1.3.4.7 2.1 2.5 3.9 4.5 5.6 6.3.5.5 1 .8 1.8.9l.6.1c.2.1.1.5 0 .6-.6 0-1.5-.1-2.5-.1-.9 0-1.7 0-2.8.1-.2 0-.2-.4-.1-.6l.5-.1c.3 0 .5-.1.5-.2s-.2-.3-.3-.5c-.4-.5-1-1.2-1.9-2.1l-1.8-2c-1.3-1.4-1.6-1.9-2.2-1.9-.3 0-.4.3-.4 1.1v2.9c0 2.4 0 2.7 1.3 2.8l.6.1c.1.1.1.5 0 .6-1.1 0-1.9-.1-2.8-.1-.9 0-1.7 0-2.6.1-.1-.1-.2-.4 0-.6l.5-.1c1.2-.2 1.2-.5 1.2-2.8v-8.2zM299.3 5.6c0-2.4 0-2.7-1.5-2.8h-.6c-.1-.1-.1-.5 0-.6 1.3 0 2 .1 2.9.1.9 0 1.6 0 2.8-.1.1.1.2.5 0 .6h-.5c-1.3.1-1.4.5-1.4 2.8v7.9c0 1.4.1 2 .5 2.4.2.2.7.5 2.5.5 1.9 0 2.4-.1 2.8-.3.5-.3 1-1.1 1.5-2.2.1-.1.6 0 .6.1 0 .2-.6 2.6-.9 3.2-1.2 0-3.3-.1-5.6-.1h-2.1c-.9 0-1.7 0-2.9.1-.1-.1-.2-.4 0-.6l.7-.1c1.3-.1 1.4-.5 1.4-2.8v-8.1zM316.7 5.6c0-2.3 0-2.7-1.4-2.8h-.4c-.1-.1-.1-.5 0-.6l2.7.1h4.2c1.4 0 2.8 0 3-.1.1.4.3 2 .4 3-.1.1-.5.2-.6 0-.3-1.1-.5-1.9-1.7-2.1-.5-.1-1.2-.1-2.2-.1h-1.6c-.7 0-.7 0-.7.9v4.5c0 .6.1.6.7.6h1.3c.9 0 1.6 0 1.9-.1.3-.1.4-.2.5-.8l.2-.9c.1-.1.5-.1.6 0 0 .5-.1 1.4-.1 2.3 0 .8.1 1.7.1 2.2-.1.2-.5.2-.6 0l-.2-.9c-.1-.4-.2-.7-.7-.9-.3-.1-.9-.1-1.7-.1h-1.3c-.7 0-.7 0-.7.6v3.2c0 1.2.1 2 .4 2.3.3.3.7.5 2.7.5 1.7 0 2.4-.1 2.9-.3.4-.2 1-1 1.6-2.2.2-.1.5 0 .6.2-.2.8-.7 2.5-1 3.1-2 0-4-.1-6.1-.1h-2c-1 0-1.7 0-3.1.1-.1-.1-.2-.4 0-.6l.7-.1c1.3-.1 1.4-.5 1.4-2.8v-8.1zM334.7 5.7c0-2.4 0-2.8-1.4-2.9h-.6c-.1-.1-.1-.5 0-.6 1.1 0 1.9.1 2.8.1.9 0 1.7 0 2.8-.1.1.1.2.5 0 .6h-.6c-1.3.1-1.4.5-1.4 2.9v8c0 2.4 0 2.7 1.4 2.9l.6.1c.1.1.1.5 0 .6-1.1 0-1.9-.1-2.8-.1-.9 0-1.7 0-2.8.1-.1-.1-.2-.4 0-.6l.6-.1c1.3-.2 1.4-.5 1.4-2.9v-8zM359.4 13.3c0 .7 0 3.4.1 4 0 .1-.2.2-.4.2-.3-.4-.9-1.2-2.9-3.4l-5.2-6c-.6-.7-2.1-2.6-2.6-3-.1.3-.1.8-.1 1.5v4.9c0 1.1 0 4 .4 4.7.1.2.6.4 1.2.4l.7.1c.1.2.1.5 0 .6-1 0-1.8-.1-2.6-.1-.9 0-1.6 0-2.3.1-.2-.1-.2-.4 0-.6l.6-.1c.5-.1.9-.2 1-.5.3-.8.3-3.6.3-4.7v-6.5c0-.6 0-1.1-.5-1.6-.3-.3-.9-.5-1.4-.5h-.4c-.1-.1-.1-.5 0-.6.9.1 2.1.1 2.6.1.4 0 .7 0 1-.1.5 1.2 3.1 4.1 3.9 5l2.2 2.5c1.6 1.7 2.7 3 3.7 4.1.1-.1.1-.5.1-.9v-5c0-1.1 0-4-.5-4.7-.1-.2-.5-.3-1.4-.5h-.4c-.2-.1-.1-.5 0-.6 1 0 1.8.1 2.7.1 1 0 1.6 0 2.3-.1.2.1.2.4 0 .6h-.3c-.7.1-1.2.3-1.3.5-.4.8-.3 3.6-.3 4.7v5.4zM369.8 5.6c0-2.3 0-2.7-1.4-2.8h-.4c-.1-.1-.1-.5 0-.6l2.7.1h4.2c1.4 0 2.8 0 3-.1.1.4.3 2 .4 3-.1.1-.5.2-.6 0-.3-1.1-.5-1.9-1.7-2.1-.5-.1-1.2-.1-2.2-.1h-1.6c-.7 0-.7 0-.7.9v4.5c0 .6.1.6.7.6h1.3c.9 0 1.6 0 1.9-.1.3-.1.4-.2.5-.8l.2-.9c.1-.1.5-.1.6 0 0 .5-.1 1.4-.1 2.3 0 .8.1 1.7.1 2.2-.1.2-.5.2-.6 0l-.2-.9c-.1-.4-.2-.7-.7-.9-.3-.1-.9-.1-1.7-.1h-1.3c-.7 0-.7 0-.7.6v3.2c0 1.2.1 2 .4 2.3.3.3.7.5 2.7.5 1.7 0 2.4-.1 2.9-.3.4-.2 1-1 1.6-2.2.2-.1.5 0 .6.2-.2.8-.7 2.5-1 3.1-2 0-4-.1-6.1-.1h-2c-1 0-1.7 0-3.1.1-.1-.1-.2-.4 0-.6l.7-.1c1.3-.1 1.4-.5 1.4-2.8v-8.1zM387.9 5.6c0-2.1-.1-2.5-1-2.6l-.7-.1c-.2-.1-.2-.5 0-.6 1.3-.1 2.8-.2 5-.2 1.4 0 2.7.1 3.8.7 1.1.6 1.9 1.6 1.9 3.2 0 2.1-1.7 3.3-2.8 3.8-.1.1 0 .4.1.5 1.8 2.9 3 4.7 4.5 6 .4.3.9.6 1.6.6.1 0 .1.2 0 .3-.2.1-.6.1-1 .1-1.9 0-3.1-.6-4.7-2.8-.6-.8-1.5-2.4-2.2-3.4-.3-.5-.7-.7-1.6-.7-1 0-1.1 0-1.1.5v2.8c0 2.4 0 2.6 1.4 2.8l.5.1c.1.1.1.5 0 .6-1 0-1.8-.1-2.7-.1-.9 0-1.8 0-2.8.1-.1-.1-.2-.4 0-.6l.6-.1c1.3-.2 1.4-.5 1.4-2.8v-8.1zm1.8 3.3c0 .4 0 .7.1.7.1.1.4.1 1.6.1.8 0 1.7-.1 2.3-.6.6-.5 1.1-1.3 1.1-2.8 0-1.8-1.1-3.5-3.6-3.5-1.4 0-1.5.1-1.5.7v5.4zM281 37.7c0 2.4 0 2.7 1.5 2.8l.6.1c.1.1.1.5 0 .6-1.3 0-2-.1-2.9-.1-.9 0-1.8 0-2.8.1-.1-.1-.2-.4 0-.6l.5-.1c1.3-.2 1.4-.5 1.4-2.8v-8.3c0-1.9 0-2.3-1.1-2.4l-.8-.1c-.2-.1-.1-.5 0-.6 1.2-.2 2.6-.2 4.5-.2s3.3.2 4.3.9 1.8 1.8 1.8 3.4c0 2.1-1.3 3.1-2.3 3.6-1 .5-2.2.7-3.1.7-.2-.1-.2-.4 0-.5 2.4-.5 3.3-1.8 3.3-3.8 0-2.2-1.3-3.6-3.6-3.6-1.2 0-1.2.1-1.2.8v10.1zM296.2 29.6c0-2.3 0-2.7-1.4-2.8h-.4c-.1-.1-.1-.5 0-.6l2.7.1h4.2c1.4 0 2.8 0 3-.1.1.4.3 2 .4 3-.1.1-.5.2-.6 0-.3-1.1-.5-1.9-1.7-2.1-.5-.1-1.2-.1-2.2-.1h-1.6c-.7 0-.7 0-.7.9v4.5c0 .6.1.6.7.6h1.3c.9 0 1.6 0 1.9-.1.3-.1.4-.2.5-.8l.2-.9c.1-.1.5-.1.6 0 0 .5-.1 1.4-.1 2.3 0 .8.1 1.7.1 2.2-.1.2-.5.2-.6 0l-.2-.9c-.1-.4-.2-.7-.7-.9-.3-.1-.9-.1-1.7-.1h-1.3c-.7 0-.7 0-.7.6v3.2c0 1.2.1 2 .4 2.3.3.3.7.5 2.7.5 1.7 0 2.4-.1 2.9-.3.4-.2 1-1 1.6-2.2.2-.1.5 0 .6.2-.2.8-.7 2.5-1 3.1-2 0-4-.1-6.1-.1h-2c-1 0-1.7 0-3.1.1-.1-.1-.2-.4 0-.6l.7-.1c1.3-.1 1.4-.5 1.4-2.8v-8.1zM314.3 29.6c0-2.1-.1-2.5-1-2.6l-.7-.1c-.2-.1-.2-.5 0-.6 1.3-.1 2.8-.2 5-.2 1.4 0 2.7.1 3.8.7 1.1.6 1.9 1.6 1.9 3.2 0 2.1-1.7 3.3-2.8 3.8-.1.1 0 .4.1.5 1.8 2.9 3 4.7 4.5 6 .4.3.9.6 1.6.6.1 0 .1.2 0 .3-.2.1-.6.1-1 .1-1.9 0-3.1-.6-4.7-2.8-.6-.8-1.5-2.4-2.2-3.4-.3-.5-.7-.7-1.6-.7-1 0-1.1 0-1.1.5v2.8c0 2.4 0 2.6 1.4 2.8l.5.1c.1.1.1.5 0 .6-1 0-1.8-.1-2.7-.1-.9 0-1.8 0-2.8.1-.1-.1-.2-.4 0-.6l.6-.1c1.3-.2 1.4-.5 1.4-2.8v-8.1zm1.8 3.3c0 .4 0 .7.1.7.1.1.4.1 1.6.1.8 0 1.7-.1 2.3-.6.6-.5 1.1-1.3 1.1-2.8 0-1.8-1.1-3.5-3.6-3.5-1.4 0-1.5.1-1.5.7v5.4zM333.7 29.6c0-2.4 0-2.7-1.4-2.8h-.6c-.1-.1-.1-.5 0-.6 1.1 0 1.8.1 2.8.1.9 0 1.6 0 2.6-.1.1.1.2.5 0 .6h-.4c-1.3.1-1.4.5-1.4 2.8v2.6c0 .4 0 .9.3.9.2 0 .5-.1.6-.2.3-.3.9-.9 1.2-1.1l2.4-2.4c.4-.4 1.5-1.6 1.8-1.9.1-.2.2-.3.2-.4 0-.1-.1-.2-.4-.2l-.6-.1c-.2-.2-.1-.5 0-.6l2.5.1c.8 0 1.6 0 2.2-.1.2.1.2.4 0 .6-.6 0-1.5.3-2.1.6-.6.4-1.9 1.4-3.2 2.6l-2 1.9c-.3.3-.5.5-.5.7 0 .2.1.3.4.7 2.1 2.5 3.9 4.5 5.6 6.3.5.5 1 .8 1.8.9l.6.1c.2.1.1.5 0 .6-.6 0-1.5-.1-2.5-.1-.9 0-1.7 0-2.8.1-.2 0-.2-.4-.1-.6l.5-.1c.3 0 .5-.1.5-.2s-.2-.3-.3-.5c-.4-.5-1-1.2-1.9-2.1l-1.8-2c-1.3-1.4-1.6-1.9-2.2-1.9-.3 0-.4.3-.4 1.1v2.9c0 2.4 0 2.7 1.3 2.8l.6.1c.1.1.1.5 0 .6-1.1 0-1.9-.1-2.8-.1-.9 0-1.7 0-2.6.1-.1-.1-.2-.4 0-.6l.5-.1c1.2-.2 1.2-.5 1.2-2.8v-8.2zM353.8 29.7c0-2.4 0-2.8-1.4-2.9h-.6c-.1-.1-.1-.5 0-.6 1.1 0 1.9.1 2.8.1.9 0 1.7 0 2.8-.1.1.1.2.5 0 .6h-.6c-1.3.1-1.4.5-1.4 2.9v8c0 2.4 0 2.7 1.4 2.9l.6.1c.1.1.1.5 0 .6-1.1 0-1.9-.1-2.8-.1-.9 0-1.7 0-2.8.1-.1-.1-.2-.4 0-.6l.6-.1c1.3-.2 1.4-.5 1.4-2.9v-8zM378.5 37.3c0 .7 0 3.4.1 4 0 .1-.2.2-.4.2-.3-.4-.9-1.2-2.9-3.4l-5.2-6c-.6-.7-2.1-2.6-2.6-3-.1.3-.1.8-.1 1.5v4.9c0 1.1 0 4 .4 4.7.1.2.6.4 1.2.4l.7.1c.1.2.1.5 0 .6-1 0-1.8-.1-2.6-.1-.9 0-1.6 0-2.3.1-.2-.1-.2-.4 0-.6l.6-.1c.5-.1.9-.2 1-.5.3-.8.3-3.6.3-4.7v-6.5c0-.6 0-1.1-.5-1.6-.3-.3-.9-.5-1.4-.5h-.4c-.1-.1-.1-.5 0-.6.9.1 2.1.1 2.6.1.4 0 .7 0 1-.1.5 1.2 3.1 4.1 3.9 5l2.2 2.5c1.6 1.7 2.7 3 3.7 4.1.1-.1.1-.5.1-.9v-4.8c0-1.1 0-4-.5-4.7-.1-.2-.5-.3-1.4-.5h-.4c-.2-.1-.1-.5 0-.6 1 0 1.8.1 2.7.1 1 0 1.6 0 2.3-.1.2.1.2.4 0 .6h-.3c-.7.1-1.2.3-1.3.5-.4.8-.3 3.6-.3 4.7v5.2zM391.1 41.5c-1.9 0-3.1-.6-3.5-.8-.3-.5-.6-2.1-.6-3.2.1-.2.5-.2.5-.1.3 1.2 1.3 3.4 3.9 3.4 1.9 0 2.8-1.2 2.8-2.6 0-1-.2-2.1-1.9-3.2l-2.1-1.4c-1.1-.7-2.4-2-2.4-3.9 0-2.1 1.7-3.9 4.6-3.9.7 0 1.5.1 2.1.3.3.1.6.1.8.1.2.5.4 1.8.4 2.8-.1.1-.5.2-.6.1-.3-1.1-.9-2.6-3.1-2.6s-2.7 1.5-2.7 2.5c0 1.3 1.1 2.3 1.9 2.8l1.8 1.2c1.4.9 2.8 2.2 2.8 4.3.1 2.5-1.8 4.2-4.7 4.2zM280.1 51.8c1.6-1.3 3.7-1.9 6.1-1.9 1.2 0 2.9.2 4 .5.3.1.4.1.6.1 0 .5.1 1.9.3 3.3-.1.2-.5.2-.6 0-.3-1.5-1.4-3.3-4.6-3.3-3.5 0-6.4 2.2-6.4 6.9s3 7.4 6.7 7.4c2.9 0 4.2-1.9 4.7-3.2.2-.1.5-.1.6.1-.2 1.2-.7 2.7-1.1 3.1-.3 0-.5.1-.8.2-.5.2-2.1.5-3.6.5-2 0-4-.4-5.6-1.5-1.8-1.2-3.2-3.3-3.2-6.2.1-2.5 1.2-4.7 2.9-6zM306.1 59.9c-.2-.5-.2-.6-.9-.6h-3.4c-.6 0-.7.1-.9.5l-.8 2.4c-.3 1-.5 1.6-.5 1.9 0 .3.1.4.7.5l.7.1c.2.1.2.5 0 .6-.6 0-1.3 0-2.3-.1-.7 0-1.6 0-2.2.1-.1-.1-.2-.5 0-.6l.7-.1c.5 0 1-.3 1.4-1.1l2-5 2.3-6.1c.3-.8.5-1.2.4-1.6.5-.2.9-.6 1.2-.9.1 0 .3 0 .3.2l1 3 3.1 9.1c.7 1.9.9 2.3 1.9 2.4l.6.1c.2.1.1.5 0 .6-.9 0-1.7-.1-2.7-.1-1.1 0-1.9 0-2.6.1-.2-.1-.2-.5 0-.6l.7-.1c.5 0 .8-.2.8-.4s-.1-.7-.3-1.2l-1.2-3.1zm-4.5-2c-.2.5-.2.5.5.5h2.8c.7 0 .7-.1.5-.7l-1.2-3.7-.5-1.4c-.1.1-.3.7-.5 1.3l-1.6 4zM329 55.9c0-1.4 0-4-.4-4.7-.2-.3-.6-.4-1.1-.5h-.6c-.1-.2-.1-.5 0-.5l2.6.1c.9 0 1.6 0 2.4-.1.2.1.2.4 0 .5h-.5c-.6 0-1 .2-1.1.5-.3.7-.3 3.3-.3 4.6v2.6c0 2-.3 4-1.6 5.4-1 1.1-2.6 1.6-4.3 1.6-1.6 0-3.1-.3-4.2-1.2-1.2-1-1.8-2.6-1.8-5.3v-5.3c0-2.3 0-2.7-1.4-2.8h-.6c-.1-.1-.1-.5 0-.5 1.1 0 1.9.1 2.8.1.9 0 1.7 0 2.8-.1.1.1.2.5 0 .5h-.5c-1.3.1-1.4.5-1.4 2.8v4.9c0 3.6 1.1 6 4.6 6 3.3 0 4.5-2.6 4.5-6v-2.6zM341.8 56.6c0 .6.1.6.7.6h1.5c.9 0 1.6 0 1.9-.1.2-.1.4-.2.6-.8l.2-.9c.1-.1.5-.1.6 0 0 .5-.1 1.4-.1 2.3 0 .8.1 1.7.1 2.2-.1.1-.4.1-.6 0l-.2-.9c-.1-.4-.3-.7-.7-.9-.3-.1-.9-.1-1.7-.1h-1.5c-.7 0-.7 0-.7.6v3.1c0 2.4 0 2.7 1.4 2.8l.8.1c.1.1.1.5 0 .6-1.3 0-2.1-.1-3-.1-1 0-1.8 0-2.8.1-.1-.1-.2-.4 0-.6l.6-.1c1.3-.2 1.4-.5 1.4-2.8v-8.1c0-2.4 0-2.7-1.4-2.8h-.4c-.1-.1-.1-.5 0-.6l2.6.1h4.2c1.4 0 2.8 0 3-.1 0 1 0 2.1.1 3-.1.1-.4.2-.5.1-.2-1-.5-1.9-1.6-2.1-.5-.1-1.2-.1-2.2-.1h-1.4c-.7 0-.7 0-.7.9v4.6zM357 53.7c0-2.4 0-2.8-1.4-2.9h-.6c-.1-.1-.1-.5 0-.6 1.1 0 1.9.1 2.8.1.9 0 1.7 0 2.8-.1.1.1.2.5 0 .6h-.6c-1.3.1-1.4.5-1.4 2.9v8c0 2.4 0 2.7 1.4 2.9l.6.1c.1.1.1.5 0 .6-1.1 0-1.9-.1-2.8-.1-.9 0-1.7 0-2.8.1-.1-.1-.2-.4 0-.6l.6-.1c1.3-.2 1.4-.5 1.4-2.9v-8zM369.5 53.6c0-2.3 0-2.7-1.4-2.8h-.4c-.1-.1-.1-.5 0-.6l2.7.1h4.2c1.4 0 2.8 0 3-.1.1.4.3 2 .4 3-.1.1-.5.2-.6 0-.3-1.1-.5-1.9-1.7-2.1-.5-.1-1.2-.1-2.2-.1h-1.6c-.7 0-.7 0-.7.9v4.5c0 .6.1.6.7.6h1.3c.9 0 1.6 0 1.9-.1.3-.1.4-.2.5-.8l.2-.9c.1-.1.5-.1.6 0 0 .5-.1 1.4-.1 2.3 0 .8.1 1.7.1 2.2-.1.2-.5.2-.6 0l-.2-.9c-.1-.4-.2-.7-.7-.9-.3-.1-.9-.1-1.7-.1h-1.3c-.7 0-.7 0-.7.6v3.2c0 1.2.1 2 .4 2.3.3.3.7.5 2.7.5 1.7 0 2.4-.1 2.9-.3.4-.2 1-1 1.6-2.2.2-.1.5 0 .6.2-.2.8-.7 2.5-1 3.1-2 0-4-.1-6.1-.1h-2c-1 0-1.7 0-3.1.1-.1-.1-.2-.4 0-.6l.7-.1c1.3-.1 1.4-.5 1.4-2.8v-8.1zM387.6 53.6c0-2.4 0-2.7-1.5-2.8h-.6c-.1-.1-.1-.5 0-.6 1.3 0 2 .1 2.9.1.9 0 1.6 0 2.8-.1.1.1.2.5 0 .6h-.5c-1.3.1-1.4.5-1.4 2.8v7.9c0 1.4.1 2 .5 2.4.2.2.7.5 2.5.5 1.9 0 2.4-.1 2.8-.3.5-.3 1-1.1 1.5-2.2.1-.1.6 0 .6.1 0 .2-.6 2.6-.9 3.2-1.2 0-3.3-.1-5.6-.1h-2.1c-.9 0-1.7 0-2.9.1-.1-.1-.2-.4 0-.6l.7-.1c1.3-.1 1.4-.5 1.4-2.8v-8.1zM405 53.2c0-1.6-.1-2.1-1.1-2.2l-.5-.1c-.2-.1-.2-.5 0-.6 1.9-.1 3.7-.2 5.7-.2 1.9 0 3.5.1 5 .7 3 1.1 4.6 3.7 4.6 6.7 0 2.9-1.4 5.3-4 6.7-1.5.8-3.3 1.1-5.1 1.1-1.4 0-2.9-.2-3.7-.2-.9 0-1.8 0-2.8.1-.1-.1-.2-.4 0-.6l.5-.1c1.3-.2 1.4-.5 1.4-2.8v-8.5zm1.8 8c0 1.2.1 1.9.5 2.5.5.7 1.4.9 2.8.9 4.4 0 6.3-2.9 6.3-7.1 0-2.5-1.2-6.7-7.1-6.7-1.3 0-2.1.2-2.2.3-.2.1-.2.7-.2 1.7v8.4zM279.2 77.2c0-1.7-.1-2.1-1.1-2.2l-.7-.1c-.2-.1-.2-.5 0-.6 1.2-.1 2.8-.2 4.9-.2 1.4 0 2.8.1 3.8.6s1.7 1.4 1.7 2.8c0 1.6-.9 2.5-2.3 3.1 0 .2.2.3.4.3 1.2.2 3 1.4 3 3.8 0 2.6-1.9 4.4-6 4.4-.7 0-1.8-.1-2.7-.1-1 0-1.8 0-2.6.1-.1-.1-.2-.4 0-.6l.4-.1c1.2-.2 1.2-.5 1.2-2.8v-8.4zm1.8 3c0 .6 0 .7 1.2.6 2.3-.1 3.5-.8 3.5-2.9 0-2.2-1.6-3-3.4-3-.5 0-.8 0-1 .1-.2.1-.3.2-.3.6v4.6zm0 5.2c0 .8 0 2 .5 2.5.4.5 1.1.6 1.8.6 2 0 3.5-.9 3.5-3.2 0-1.8-.9-3.9-4.5-3.9-1.2 0-1.3.1-1.3.6v3.4zM302.4 85.7c0 2.4.1 2.8 1.4 2.9l.9.1c.1.1.1.5 0 .6-1.4 0-2.2-.1-3.1-.1-.9 0-1.8 0-3 .1-.1-.1-.2-.4 0-.6l.7-.1c1.3-.1 1.4-.5 1.4-2.9v-1.2c0-1.2-.1-1.5-.7-2.8l-2.7-5.2c-.8-1.5-1.1-1.6-1.8-1.7l-.6-.1c-.1-.2-.1-.5 0-.6.7 0 1.5.1 2.6.1 1 0 1.9 0 2.4-.1.2.1.2.4.1.6h-.3c-.8.1-.9.2-.9.4s.6 1.5.7 1.7c.8 1.7 1.7 3.5 2.6 5 .7-1.2 1.4-2.5 2.1-3.8.6-1.2 1.5-2.7 1.5-3 0-.1-.4-.3-.9-.4h-.4c-.2-.2-.1-.5 0-.6.8 0 1.5.1 2.2.1.7 0 1.3 0 2.1-.1.2.1.2.4 0 .6l-.6.1c-1.2.2-1.9 1.6-3 3.6l-1.4 2.5c-1 1.7-1.1 1.9-1.1 3.7v1.2zM315.6 77.6c0-2.3 0-2.7-1.4-2.8h-.4c-.1-.1-.1-.5 0-.6l2.7.1h4.2c1.4 0 2.8 0 3-.1.1.4.3 2 .4 3-.1.1-.5.2-.6 0-.3-1.1-.5-1.9-1.7-2.1-.5-.1-1.2-.1-2.2-.1h-1.6c-.7 0-.7 0-.7.9v4.5c0 .6.1.6.7.6h1.3c.9 0 1.6 0 1.9-.1.3-.1.4-.2.5-.8l.2-.9c.1-.1.5-.1.6 0 0 .5-.1 1.4-.1 2.3 0 .8.1 1.7.1 2.2-.1.2-.5.2-.6 0l-.2-.9c-.1-.4-.2-.7-.7-.9-.3-.1-.9-.1-1.7-.1h-1.3c-.7 0-.7 0-.7.6v3.2c0 1.2.1 2 .4 2.3.3.3.7.5 2.7.5 1.7 0 2.4-.1 2.9-.3.4-.2 1-1 1.6-2.2.2-.1.5 0 .6.2-.2.8-.7 2.5-1 3.1-2 0-4-.1-6.1-.1h-2c-1 0-1.7 0-3.1.1-.1-.1-.2-.4 0-.6l.7-.1c1.3-.1 1.4-.5 1.4-2.8v-8.1zM333.6 77.6c0-2.1-.1-2.5-1-2.6l-.7-.1c-.2-.1-.2-.5 0-.6 1.3-.1 2.8-.2 5-.2 1.4 0 2.7.1 3.8.7 1.1.6 1.9 1.6 1.9 3.2 0 2.1-1.7 3.3-2.8 3.8-.1.1 0 .4.1.5 1.8 2.9 3 4.7 4.5 6 .4.3.9.6 1.6.6.1 0 .1.2 0 .3-.2.1-.6.1-1 .1-1.9 0-3.1-.6-4.7-2.8-.6-.8-1.5-2.4-2.2-3.4-.3-.5-.7-.7-1.6-.7-1 0-1.1 0-1.1.5v2.8c0 2.4 0 2.6 1.4 2.8l.5.1c.1.1.1.5 0 .6-1 0-1.8-.1-2.7-.1-.9 0-1.8 0-2.8.1-.1-.1-.2-.4 0-.6l.6-.1c1.3-.2 1.4-.5 1.4-2.8v-8.1zm1.9 3.3c0 .4 0 .7.1.7.1.1.4.1 1.6.1.8 0 1.7-.1 2.3-.6.6-.5 1.1-1.3 1.1-2.8 0-1.8-1.1-3.5-3.6-3.5-1.4 0-1.5.1-1.5.7v5.4zM355.2 89.5c-1.9 0-3.1-.6-3.5-.8-.3-.5-.6-2.1-.6-3.2.1-.2.5-.2.5-.1.3 1.2 1.3 3.4 3.9 3.4 1.9 0 2.8-1.2 2.8-2.6 0-1-.2-2.1-1.9-3.2l-2.1-1.4c-1.1-.7-2.4-2-2.4-3.9 0-2.1 1.7-3.9 4.6-3.9.7 0 1.5.1 2.1.3.3.1.6.1.8.1.2.5.4 1.8.4 2.8-.1.1-.5.2-.6.1-.3-1.1-.9-2.6-3.1-2.6s-2.7 1.5-2.7 2.5c0 1.3 1.1 2.3 1.9 2.8l1.8 1.1c1.4.9 2.8 2.2 2.8 4.3.1 2.6-1.7 4.3-4.7 4.3z"/></svg>