<?xml version="1.0" encoding="UTF-8"?>
<svg width="88px" height="99px" viewBox="0 0 88 99" version="1.1" xmlns="http://www.w3.org/2000/svg" xmlns:xlink="http://www.w3.org/1999/xlink">
    <!-- Generator: Sketch 56.2 (81672) - https://sketch.com -->
    <title>logoAudius</title>
    <desc>Created with Sketch.</desc>
    <g id="Symbols" stroke="none" stroke-width="1" fill="none" fill-rule="evenodd">
        <g id="Navbar" transform="translate(-63.000000, -37.000000)" fill="#FAFAFA">
            <g id="logo" transform="translate(63.000000, 37.113103)">
                <path d="M4.94772833,86.8868971 L8.05243479,86.8868971 L13,98.8868971 L9.54655642,98.8868971 L8.69999624,96.7591379 L4.217142,96.7591379 L3.3870563,98.8868971 L0,98.8868971 L4.94772833,86.8868971 Z M6.47512516,90.8017801 L5.16336466,94.189071 L7.77008494,94.189071 L6.47512516,90.8017801 Z M17.6671684,93.5126326 L17.6671684,86.9121376 L20.990287,86.9121376 L20.990287,93.4453126 C20.990287,95.1415126 21.8505657,95.9477026 23.1662569,95.9477026 C24.4821137,95.9477026 25.3423925,95.1751726 25.3423925,93.5292976 L25.3423925,86.9121376 L28.6655111,86.9121376 L28.6655111,93.4284826 C28.6655111,97.2241426 26.4893755,98.8868476 23.132449,98.8868476 C19.7756881,98.8868476 17.6671684,97.1904826 17.6671684,93.5126326 Z M39.5124475,95.7797656 C41.4691631,95.7797656 42.768116,94.7047906 42.768116,92.8069606 L42.768116,92.7734656 C42.768116,90.8926306 41.4691631,89.8009906 39.5124475,89.8009906 L38.1798524,89.8009906 L38.1798524,95.7797656 L39.5124475,95.7797656 Z M34.9072798,86.9121706 L39.4619013,86.9121706 C43.6791066,86.9121706 46.1250426,89.3305756 46.1250426,92.7231406 L46.1250426,92.7568006 C46.1250426,96.1492006 43.6452987,98.6685856 39.3946169,98.6685856 L34.9072798,98.6685856 L34.9072798,86.9121706 Z M51.9589454,98.6686021 L51.9589454,86.9121871 L55.2482561,86.9121871 L55.2482561,98.6686021 L51.9589454,98.6686021 Z M61.5057356,93.5126326 L61.5057356,86.9121376 L64.8288542,86.9121376 L64.8288542,93.4453126 C64.8288542,95.1415126 65.689133,95.9477026 67.0049898,95.9477026 C68.3205153,95.9477026 69.1809597,95.1751726 69.1809597,93.5292976 L69.1809597,86.9121376 L72.5040783,86.9121376 L72.5040783,93.4284826 C72.5040783,97.2241426 70.3279427,98.8868476 66.9711819,98.8868476 C63.6144211,98.8868476 61.5057356,97.1904826 61.5057356,93.5126326 Z M77.6613258,96.9218791 L79.4831412,94.7552641 C80.647194,95.6790991 81.9459812,96.1661791 83.3125499,96.1661791 C84.1897326,96.1661791 84.6618832,95.8637341 84.6618832,95.3599891 L84.6618832,95.3263291 C84.6618832,94.8394141 84.2739209,94.5706291 82.6713597,94.2011941 C80.1579736,93.6301291 78.2179962,92.9245891 78.2179962,90.5061841 L78.2179962,90.4726891 C78.2179962,88.2894091 79.9556234,86.7106891 82.7893559,86.7106891 C84.7967834,86.7106891 86.3655367,87.2480941 87.6475857,88.2725791 L86.011548,90.5733391 C84.9318493,89.8176391 83.7508927,89.4145441 82.7051676,89.4145441 C81.9121733,89.4145441 81.5243766,89.7504841 81.5243766,90.1704091 L81.5243766,90.2039041 C81.5243766,90.7413091 81.9290772,90.9765991 83.5654463,91.3460341 C86.2813484,91.9339291 87.9680979,92.8071091 87.9680979,95.0072191 L87.9680979,95.0408791 C87.9680979,97.4424541 86.0619284,98.8701991 83.1943879,98.8701991 C81.1026064,98.8701991 79.1120829,98.2151491 77.6613258,96.9218791 Z M87.712467,73.3973011 C88.5187194,74.7897361 87.508791,76.5290011 85.8941318,76.5280115 L64.9032316,76.5143161 L43.9540942,76.5004561 L27.1537175,76.4892361 C25.5392241,76.4882461 24.5314501,74.7476611 25.3395254,73.3562161 L33.4517665,59.3883061 C33.8268023,58.7424961 34.5193672,58.3450111 35.2686102,58.3455061 L54.332791,58.3580461 C55.7620038,58.3588711 56.71658,56.9961361 56.3576196,55.7172211 C56.3110508,55.5515611 56.2436008,55.3870561 56.1511262,55.2273361 L54.535307,52.4368561 L45.7962938,37.3434811 C45.0407533,36.0384961 43.2210923,35.9553361 42.3301544,37.0953211 C42.2703277,37.1717161 42.2148098,37.2537211 42.1639322,37.3411711 L40.8759171,39.5589361 L32.4531073,54.0617761 C32.0780716,54.7075861 31.3855066,55.1052361 30.6362637,55.1047411 L14.4303427,55.0940161 C12.8158493,55.0928611 11.8080753,53.3522761 12.6161507,51.9608311 L21.1940791,37.1911861 L42.1881281,1.04265611 C42.9962034,-0.34862389 45.0140716,-0.34730389 45.8204896,1.04513111 L56.9422976,20.2537711 L66.7664783,37.2212161 L87.712467,73.3973011 Z"></path>
            </g>
        </g>
    </g>
</svg>