<svg width="138" height="30" viewBox="0 0 138 30" fill="none" xmlns="http://www.w3.org/2000/svg">
<path fill-rule="evenodd" clip-rule="evenodd" d="M10.6979 26.218C11.7631 26.218 12.7596 26.0232 13.6989 25.6453C13.6989 25.6796 15.6117 28.6462 15.646 28.6576C13.9531 29.5646 12.0571 30.0258 10.1367 29.9977C4.26085 30.0092 0 26.1263 0 19.9527C0 13.7332 4.46702 9.87326 10.1367 9.87326C12.1411 9.87326 13.7332 10.3085 15.3253 11.1561L13.4927 14.2486C12.5306 13.8707 11.5455 13.6989 10.5147 13.6989C7.04414 13.6989 4.35248 15.9095 4.35248 19.9527C4.35248 23.7783 6.95251 26.218 10.6979 26.218ZM25.5078 9.87326C31.2806 9.87326 35.4613 13.9623 35.4613 19.9527C35.4613 25.9087 31.2806 29.9977 25.4964 29.9977C19.7694 29.9977 15.5887 25.9087 15.5887 19.9527C15.5887 13.9623 19.7694 9.87326 25.5078 9.87326ZM25.5078 13.5614C22.2893 13.5614 19.9412 16.0469 19.9412 19.9527C19.9412 23.8241 22.2893 26.3096 25.5078 26.3096C28.8065 26.3096 31.1202 23.8241 31.1202 19.9527C31.1202 16.0469 28.8065 13.5614 25.5078 13.5614ZM38.1987 29.5625V10.3085H42.5054V29.551H38.1987V29.5625ZM37.626 4.38684C37.6707 3.70183 37.9743 3.05946 38.4753 2.59011C38.9762 2.12076 39.637 1.85959 40.3234 1.85959C41.0099 1.85959 41.6707 2.12076 42.1716 2.59011C42.6725 3.05946 42.9762 3.70183 43.0208 4.38684C43.021 5.10609 42.7392 5.79675 42.236 6.31066C41.7328 6.82457 41.0482 7.12079 40.3292 7.13578C39.6101 7.12079 38.9255 6.82457 38.4223 6.31066C37.9191 5.79675 37.6373 5.10609 37.6375 4.38684H37.626ZM46.2623 11.5226C49.0833 10.4623 52.0682 9.90406 55.0818 9.87326C60.0069 9.87326 63.1224 11.7402 63.1224 17.1694V29.5625H58.873V17.5703C58.873 14.787 57.1435 13.7905 54.7496 13.7905C53.2262 13.7905 51.7029 13.9967 50.5689 14.3517V29.551H46.2737V11.5226H46.2623ZM66.7304 0H71.037V10.8239C71.9534 10.3429 73.7287 9.87326 75.4239 9.87326C80.9905 9.87326 85.1597 13.424 85.1597 19.6091C85.1597 25.8285 81.0363 29.9977 73.912 29.9977C71.1287 29.9977 68.689 29.4251 66.7304 28.7378V0ZM71.037 25.9087C71.8617 26.1721 72.9498 26.3096 74.038 26.3096C77.9896 26.3096 80.8187 24.1334 80.8187 19.7007C80.8187 15.9553 78.1614 13.7447 74.9085 13.7447C73.2133 13.7447 71.9075 14.1799 71.037 14.661V25.9087ZM97.6101 16.654C97.6101 14.5694 96.0294 13.6072 93.899 13.6072C91.6884 13.6072 89.9474 14.2601 88.3439 15.1764V11.431C90.2621 10.3885 92.4146 9.85236 94.5977 9.87326C98.8127 9.87326 101.814 11.6142 101.814 16.4363V29.1731C99.981 29.6541 97.381 29.9519 95.2048 29.9519C90.2109 29.9519 86.5571 28.44 86.5571 24.0875C86.5571 20.1703 89.9016 18.2575 95.4682 18.2575H97.5986V16.654H97.6101ZM97.6101 21.121H95.7775C92.7765 21.121 90.8179 22.0029 90.8179 23.9615C90.8179 25.9545 92.6505 26.7334 95.2506 26.7334C95.9035 26.7334 96.8198 26.6532 97.5986 26.5272V21.1324L97.6101 21.121ZM104.941 24.351C106.619 25.6808 108.677 26.4429 110.816 26.5272C112.729 26.5272 113.989 25.8743 113.989 24.351C113.989 22.7818 112.855 22.2206 110.381 21.5677C106.372 20.6514 104.689 19.0478 104.689 15.6918C104.689 11.7861 107.644 9.87326 111.561 9.87326C113.737 9.87326 115.467 10.3429 117.082 11.3508V15.3024C115.547 14.0773 113.65 13.3929 111.687 13.3552C109.82 13.3552 108.823 14.2716 108.823 15.5315C108.823 16.7914 109.637 17.4328 111.859 18.0513C116.257 19.002 118.158 20.6514 118.158 24.1219C118.158 28.1766 115.077 29.9977 110.908 29.9977C108.817 30.0395 106.755 29.5002 104.952 28.44V24.351H104.941ZM124.057 20.9148V20.995C124.321 24.4312 127.264 26.3096 130.277 26.3096C132.922 26.3096 134.835 25.6911 136.748 24.4312V28.2109C135.007 29.4365 132.441 29.9977 129.967 29.9977C123.965 29.9977 119.888 26.1721 119.888 20.0901C119.888 13.9623 123.885 9.87326 129.188 9.87326C134.801 9.87326 137.447 13.4812 137.447 18.7386V20.9148H124.046H124.057ZM133.403 18.1315C133.312 15.1306 131.834 13.4812 129.051 13.4812C126.577 13.4812 124.756 15.2222 124.183 18.1315H133.403Z" fill="#12063D"/>
</svg>
