<svg xmlns="http://www.w3.org/2000/svg" width="58.6" height="43.3" viewBox="0 0 58.6 43.3"><style type="text/css">.st0{opacity:0.5;} .st1{fill:#0277BD;}</style><g class="st0"><path class="st1" d="M15.7 29.2v-6.7h3.3c1.5 0 2.3 1 2.3 2.2 0 1.2-.8 2.2-2.3 2.2h-1.6v2.2h-1.7zm3.9-4.5c0-.5-.4-.7-.8-.7h-1.4v1.4h1.4c.4 0 .8-.2.8-.7zM27.8 29.2l-1.1-2.2h-.9v2.2h-1.7v-6.7h3.3c1.5 0 2.3 1 2.3 2.2 0 1.2-.7 1.8-1.3 2l1.4 2.4h-2zm.2-4.5c0-.5-.4-.7-.8-.7h-1.4v1.4h1.4c.4 0 .8-.2.8-.7zM32.8 29.2v-6.7h4.9v1.5h-3.2v1h3.1v1.5h-3.1v1.1h3.2v1.5h-4.9zM40.7 26.4v-1.3h2.4v1.3h-2.4zM0 43.2v-6.7h4.9v1.5h-3.2v1h3.1v1.5h-3.1v1.1h3.2v1.5h-4.9zM12.3 43.2l-1.4-2.2-1.4 2.2h-2l2.3-3.4-2.2-3.2h2l1.3 2.1 1.3-2.1h2l-2.2 3.1 2.3 3.4h-2zM16.9 43.2v-6.7h1.7v6.7h-1.7zM21.5 42.2l.9-1.3c.5.5 1.2.9 2.1.9.6 0 .9-.2.9-.5 0-.9-3.8-.2-3.8-2.7 0-1.1.9-2.1 2.6-2.1 1.1 0 2 .3 2.7.9l-.9 1.3c-.6-.5-1.3-.7-1.9-.7-.5 0-.7.2-.7.5 0 .8 3.8.2 3.8 2.7 0 1.3-1 2.2-2.8 2.2-1.3-.1-2.3-.5-2.9-1.2zM31.5 43.2v-5.2h-1.9v-1.5h5.4v1.5h-1.9v5.2h-1.6zM37.9 43.2v-6.7h1.7v6.7h-1.7zM47.4 43.2l-2.8-3.9v3.9h-1.7v-6.7h1.8l2.7 3.7v-3.7h1.7v6.7h-1.7zM52 39.8c0-2.1 1.6-3.4 3.6-3.4 1.5 0 2.4.8 2.8 1.6l-1.4.8c-.2-.4-.8-.8-1.4-.8-1.1 0-1.9.8-1.9 1.9 0 1.1.8 1.9 1.9 1.9.5 0 1-.2 1.2-.4v-.5h-1.5v-1.5h3.2v2.6c-.7.8-1.7 1.3-2.9 1.3-1.9 0-3.6-1.3-3.6-3.5z"/></g><path class="st1" d="M36.4 3.7h-11.2l2.7-1.9c.5-.3.6-.9.2-1.4s-.9-.6-1.4-.2l-5.2 3.7v.1l-.2.2-.1.1-.1.3v.1c0 .1 0 .3.1.4v.1l.2.3 5 4.1c.2.1.4.2.6.2.3 0 .6-.1.8-.4.4-.4.3-1-.1-1.4l-2.9-2.3h11.6c.6 0 1-.4 1-1s-.4-1-1-1z"/></svg>